<?xml version="1.0" encoding="UTF-8"?>
<!DOCTYPE svg PUBLIC "-//W3C//DTD SVG 1.1//EN" "http://www.w3.org/Graphics/SVG/1.1/DTD/svg11.dtd">
<!-- Creator: CorelDRAW -->
<svg xmlns="http://www.w3.org/2000/svg" xml:space="preserve" width="78.2485mm" height="21.9755mm" version="1.1" shape-rendering="geometricPrecision" text-rendering="geometricPrecision" image-rendering="optimizeQuality" fill-rule="evenodd" clip-rule="evenodd"
viewBox="0 0 14285.91 4012.09"
 xmlns:xlink="http://www.w3.org/1999/xlink"
 xmlns:xodm="http://www.corel.com/coreldraw/odm/2003">
 <defs>
     <linearGradient id="id0" gradientUnits="userSpaceOnUse" x1="2752.73" y1="1747.22" x2="2058.53" y2="959.34">
      <stop offset="0" stop-opacity="1" stop-color="#FAD961"/>
      <stop offset="1" stop-opacity="1" stop-color="#F76B1C"/>
     </linearGradient>
     <linearGradient id="id1" gradientUnits="userSpaceOnUse" x1="2401.39" y1="1669.78" x2="1455.95" y2="1375.02">
      <stop offset="0" stop-opacity="1" stop-color="#FAD961"/>
      <stop offset="1" stop-opacity="1" stop-color="#F76B1C"/>
     </linearGradient>
     <linearGradient id="id2" gradientUnits="userSpaceOnUse" x1="3140.51" y1="1977.37" x2="4155.83" y2="1830.64">
      <stop offset="0" stop-opacity="1" stop-color="#FAD961"/>
      <stop offset="1" stop-opacity="1" stop-color="#F76B1C"/>
     </linearGradient>
     <linearGradient id="id3" gradientUnits="userSpaceOnUse" x1="2945.97" y1="1934.41" x2="3747.31" y2="1211.82">
      <stop offset="0" stop-opacity="1" stop-color="#FAD961"/>
      <stop offset="1" stop-opacity="1" stop-color="#F76B1C"/>
     </linearGradient>
     <linearGradient id="id4" gradientUnits="userSpaceOnUse" x1="2939.05" y1="1812.44" x2="2939.05" y2="795.46">
      <stop offset="0" stop-opacity="1" stop-color="#FAD961"/>
      <stop offset="1" stop-opacity="1" stop-color="#F76B1C"/>
     </linearGradient>
     <linearGradient id="id5" gradientUnits="userSpaceOnUse" x1="1952.29" y1="1175.19" x2="1952.29" y2="2780.1">
      <stop offset="0" stop-opacity="1" stop-color="#FAD961"/>
      <stop offset="1" stop-opacity="1" stop-color="#F76B1C"/>
     </linearGradient>
 </defs>
 <g id="圖層_x0020_1">
  <metadata id="CorelCorpID_0Corel-Layer"/>
  <g id="_1837747094448">
   <g>
    <polygon fill="url(#id0)" points="2611.06,1860.4 2084.58,959.37 1775.25,1151.91 "/>
    <polygon fill="url(#id1)" points="2345.65,1855.71 1438.42,1374.98 1344.42,1500.59 1351.48,1659.21 1403.24,1755.22 "/>
    <polygon fill="url(#id2)" points="3113.06,1778.46 4097.28,1830.59 4155.83,1554.14 4114.73,1428 "/>
    <polygon fill="url(#id3)" points="2813.53,1806.36 3747.33,1160.59 3443.14,955.61 "/>
    <polygon fill="url(#id4)" points="2939.03,795.46 2542.16,795.46 2740.59,1812.38 "/>
    <path fill="#474443" fill-rule="nonzero" d="M4039.6 2385.4c274.44,-5 692.4,-9.04 963.74,-15.92 -252.84,-5.64 -650.5,-11.12 -914.28,-15.14 138.33,-277.87 240.57,-572.43 317.05,-873.2l2.88 -11.98 -8.34 -9.77c-356.54,-421.99 -859.78,-724.57 -1407.97,-811.47 -77.41,-12.76 -159.04,-19.39 -237.91,-18.13 -78.96,-1.52 -160.7,5.37 -238.02,18.13 -548.19,86.9 -1051.39,389.41 -1408.04,811.38l-8.33 9.86 2.96 11.98c58.35,232.07 133.57,458.78 226.9,678.96 27.7,65.74 58.17,130.3 90.08,194.13 -264.36,4.22 -662.11,9.4 -914.22,15.24 261.13,6.97 675.82,9.95 939.22,15.63l24.72 0.38c0,0 -10.81,-23 -10.81,-23 -102.64,-213.19 -181.49,-437.11 -247.6,-664.1 -20.61,-71.49 -39.87,-143.92 -56.72,-215.89 303.56,-343.62 702.73,-603.95 1146.16,-724.11 147.68,-39.18 300.59,-67.92 453.71,-64.87 153.01,-3.25 306.04,25.69 453.6,64.87 443.54,120.17 842.73,380.5 1146.29,724.02 -16.89,72.06 -36.13,144.49 -56.74,216.07 -68.21,235.13 -151.21,466.52 -258.32,686.92z"/>
    <path fill="#474443" fill-rule="nonzero" d="M5509.47 2229.98c-498.27,-16.29 -1017.89,-25.98 -1518.92,-33.83 18.2,-41.41 36.13,-82.89 52.98,-124.86 70.33,-174.46 133,-350.88 186.08,-531.59l6.43 -22.42c0,0 -15.81,-17.84 -15.81,-17.84 -580.38,-672.15 -1465.06,-941.98 -2278.36,-520.29 -250.47,126.7 -467.51,311.32 -652.73,520.2l-15.79 17.84c0,0 6.41,22.51 6.41,22.51 66.13,223.83 145.66,442.68 239.06,656.27 -365.84,5.82 -765.96,13.02 -1125.84,22.51 -130.99,3.07 -261.99,7.49 -392.97,11.5 515.71,17.25 1054.38,26.35 1571.63,34.87 0,0 52.98,0.88 52.98,0.88 -80.22,-186.48 -214.54,-674.76 -228.91,-726.03 353.28,-387.49 826.81,-663.35 1359.08,-662.29 367.37,-0.47 727.84,132.71 1026.12,343.96 130.32,93.26 223.72,200.86 332.95,318.53 -68.68,246.71 -127.53,490.29 -228.62,725.63 534.86,-8.64 1090.9,-17.84 1624.23,-35.55z"/>
    <polygon fill="#474443" fill-rule="nonzero" points="3031.03,200.43 2840.06,172.73 2754.78,0 2669.41,172.73 2478.53,200.43 2616.61,334.98 2584.02,524.89 2754.78,435.19 2925.43,524.89 2892.86,334.98 "/>
    <polygon fill="#474443" fill-rule="nonzero" points="3765.95,475.16 3612.94,453.01 3544.43,314.46 3476.01,453.01 3322.98,475.16 3433.76,583.04 3407.58,735.3 3544.43,663.43 3681.34,735.3 3655.18,583.04 "/>
    <polygon fill="#474443" fill-rule="nonzero" points="2186.47,475.16 2033.46,453.01 1965.05,314.46 1896.64,453.01 1743.52,475.16 1854.28,583.04 1828.12,735.3 1965.05,663.43 2101.87,735.3 2075.81,583.04 "/>
    <polygon fill="#474443" fill-rule="nonzero" points="1890.71,3229.65 3631.34,3229.65 3631.34,3288.96 1890.71,3288.96 "/>
    <path fill="#474443" fill-rule="nonzero" d="M4902.07 3142.25c-353.38,-11.96 -740.02,-18.09 -1094.53,-23.57 -185.04,290.14 -435.96,543.68 -743.74,701.29 -75.24,38.32 -153.41,70.82 -234.28,94.57 -24.54,7.28 -50.52,13.8 -74.16,18.31 -442.31,-101.18 -803.82,-429.75 -1046.15,-802.97l-7.19 -11.12 -12.52 0.2c-350.15,5.37 -733.52,11.5 -1082.1,23.28 344.66,11.5 722.36,18.11 1068.94,23.19 241.67,391.61 615.15,743.76 1073.66,845.8l4.87 0.86c0,0 4.98,-0.86 4.98,-0.86 117.76,-22.82 226.99,-80.77 333.06,-134.61 309.02,-159.55 559.29,-416.94 740.31,-711.1 346.57,-5.17 724.66,-11.78 1068.84,-23.28z"/>
    <path fill="#474443" fill-rule="nonzero" d="M5281.8 3279.18l-1796.32 -46.46 -22.13 -0.58 -15.83 20.21c-80.93,127.64 -150.99,238.99 -277.65,324.56 -110.49,74.84 -233.89,132.51 -363.63,164.51 -17.05,4.02 -34.23,7.94 -51.47,9.77 0,0 -4.13,-0.47 -4.13,-0.47 -147.37,-25.98 -287.06,-91.03 -410.86,-173.81 -126.69,-85.57 -196.7,-196.92 -277.69,-324.56l-15.81 -20.21 -22.13 0.58 -1796.48 46.46c0,0 1692.32,44.75 1735.92,45.9 97.26,119.68 212.15,223.92 341.5,304.89 132.53,81.44 277.31,146.59 430.98,174.28 9.2,1.55 19.85,2.61 29.25,1.15 156.83,-25.78 304.4,-92.84 439.21,-175.43 129.37,-80.97 244.24,-185.22 341.5,-304.89 43.6,-1.15 1735.76,-45.9 1735.76,-45.9z"/>
    <path fill="url(#id5)" d="M3557.16 1977.66c0,443.17 -359.21,802.38 -802.38,802.38 -443.25,0 -802.47,-359.21 -802.47,-802.38 0,-443.25 359.23,-802.45 802.47,-802.45 443.17,0 802.38,359.21 802.38,802.45z"/>
    <path fill="#474443" fill-rule="nonzero" d="M2241.3 1848.99l0 -30.07c0,-11.03 9,-20.05 20.12,-20.05l596.19 0c11.12,0 20.12,9.02 20.12,20.05l0 30.07 -636.42 0z"/>
    <path fill="#5F5D5D" fill-rule="nonzero" d="M2094.02 2929.17l-31.71 -40.17 28.17 -28.17c3.82,-3.83 7.28,-8.33 10.24,-13.22l12.27 -20.43 0 51.27 260.91 0 0 50.72 -279.88 0z"/>
    <polygon fill="#A5A6A5" fill-rule="nonzero" points="2419.5,2977.84 2877.9,2977.84 2877.9,3012.06 2419.5,3012.06 "/>
    <polygon fill="#A5A6A5" fill-rule="nonzero" points="2419.5,2911.99 2877.9,2911.99 2877.9,2946.11 2419.5,2946.11 "/>
    <path fill="#A5A6A5" fill-rule="nonzero" d="M3912.64 3042.04l-1.62 -4.24c-31.42,-82.58 -111.82,-138.08 -200.06,-138.08 -68.41,0 -133.39,33.37 -173.63,89.22l-2.01 2.78 -156.96 0 -1.92 -2.78c-40.35,-55.85 -105.22,-89.22 -173.72,-89.22 -69.76,0 -135.39,34.32 -175.54,91.83l-12.09 17.13 0 -16.96 -91.69 0 0 -113.27 1086.48 0 0 87.21 -24.9 0c-14.37,0 -26.07,11.68 -26.07,26.05l0 50.32 -46.28 0z"/>
    <path fill="white" fill-rule="nonzero" d="M3735.66 2591.6c-4.67,-7.78 -4.78,-15.24 -0.37,-23.02 5.28,-9.29 15.7,-28.54 18.59,-33.99l-4.97 -3.16 -20.81 -11.3 78.76 -3.47 42.83 71.02 -25.49 -14.39 -36.22 63.53c-1.72,3.14 -3.34,7.56 -4.58,12.54l-3.93 15.43c0,0 -34.23,-57.31 -43.82,-73.19z"/>
    <path fill="white" fill-rule="nonzero" d="M3819.04 2695.35c-12.76,0 -24.14,-6.02 -31.26,-16.65 -7.45,-11.21 -8.6,-25.12 -2.98,-37.19 2.9,-6.04 6.13,-12.07 9.4,-18l4.31 -7.98 3.83 0c22.82,-0.27 61.42,-0.37 75.69,-0.47l6.74 0 -0.11 6.7c-0.18,12.76 -0.68,44.77 -0.49,65.94l0 6.59 -6.5 0c-12.56,0.11 -41.5,0.4 -57.13,1.06l-1.52 0z"/>
    <path fill="white" fill-rule="nonzero" d="M3997.72 2606.73c-11.3,-19.92 -29.89,-53.75 -36.79,-66.22l-3.27 -5.82 5.95 -3.18c8.73,-4.6 38.63,-20.5 58.08,-31.24l5.73 -3.27 3.18 5.77c4.98,8.91 19.92,35.84 28.35,49.62 6.99,11.39 7.39,24.72 1.15,36.7 -6.23,11.99 -17.91,19.64 -31.15,20.5 -6.99,0.38 -14.19,0.38 -20.48,0.38l-8.82 0.11 -1.94 -3.36z"/>
    <path fill="white" fill-rule="nonzero" d="M3919.73 2484.83l-36 -63.7c-1.75,-3.05 -4.82,-6.81 -8.43,-10.44l-11.23 -11.21 85.28 0c9.11,0 15.63,3.72 19.94,11.41 5.28,9.29 16.49,28.15 19.64,33.43l5.28 -2.67 20.41 -12.1 -37.48 69.47 -82.98 0.29c0,0 25.58,-14.48 25.58,-14.48z"/>
    <path fill="white" fill-rule="nonzero" d="M3908.9 2650.31l41.68 -71.84 -0.46 29.41c0,0 73.19,1.15 73.19,1.15 3.82,0 8.34,-0.68 13.22,-1.92l15.43 -4.11c0,0 -33.83,57.66 -43.12,73.69 -4.42,7.65 -10.61,11.47 -18.49,11.47 -0.57,0 -1.22,0 -1.92,-0.09 -3.36,0 -8.53,-0.07 -13.88,-0.07 -9.88,0 -20.5,0.07 -24.43,0.07l-0.4 5.95 0.11 23.66c0,0 -40.93,-67.37 -40.93,-67.37z"/>
    <path fill="white" fill-rule="nonzero" d="M3847.03 2511.87c-8.34,-5.19 -37.1,-23 -56.36,-34.32l-5.66 -3.32 3.27 -5.68c5.73,-9.66 20.9,-35.44 28.46,-49.51 6.32,-11.81 17.73,-18.9 31.15,-19.55 0.66,0 1.31,0 2.01,0 12.63,0 24.43,6.13 31.42,16.49 3.83,5.73 7.28,11.78 10.72,17.55l4.51 7.54 -2.01 3.36c-11.39,19.75 -31.15,52.98 -38.41,65.16l-3.45 5.73c0,0 -5.64,-3.43 -5.64,-3.43z"/>
    <path fill="#474443" fill-rule="nonzero" d="M1802.14 2104.93l228.45 0c8.25,0 14.84,6.68 14.84,14.93l0 184.36c0,8.14 -6.59,14.84 -14.84,14.84l-228.45 0c-8.14,0 -14.82,-6.7 -14.82,-14.84l0 -184.36c0,-8.25 6.68,-14.93 14.82,-14.93z"/>
    <path fill="#474443" fill-rule="nonzero" d="M1743.02 2137.89l0 263.5c0,13.42 -5.82,25.98 -16.38,34.29l-54.04 43.89 -34.78 28.28c-1.35,1.15 -2.78,2.01 -4.22,2.96 -5.75,3.47 -12.45,5.28 -19.35,5.28l-364.39 0c-11.03,0 -20.03,-9 -20.03,-20.14l0 -39.65c0,-16.1 2.96,-31.91 8.89,-46.87 3.18,-8.12 6.54,-16.08 9.9,-23.94l12.63 -35.18 0 80.59c0,8.53 6.92,15.43 15.43,15.43l31.91 0c8.43,0 15.43,-6.9 15.43,-15.43l0 -187.61 1.04 -1.62c10.55,-16.39 21.38,-32.3 32.48,-47.63 9.6,-13.4 19.46,-26.25 29.34,-38.6 17.42,-21.85 40.62,-37.28 66.49,-44.93 12.25,-3.67 25.01,-5.57 38.23,-5.57l218.56 0c18.13,0 32.86,14.82 32.86,32.95z"/>
    <path fill="white" fill-rule="nonzero" d="M1583.49 2516.08l-122.65 0 -103.3 -322.06c9.6,-13.4 19.46,-26.25 29.34,-38.6 17.42,-21.85 40.62,-37.28 66.49,-44.93l130.12 405.58z"/>
    <path fill="white" fill-rule="nonzero" d="M1672.61 2479.57l-34.78 28.28c-1.35,1.15 -2.78,2.01 -4.22,2.96l-130.21 -405.87 49.06 0c0,0 120.15,374.64 120.15,374.64z"/>
    <polygon fill="white" fill-rule="nonzero" points="1941.19,2319.07 1888.19,2319.07 1819.49,2104.93 1872.47,2104.93 "/>
    <path fill="#A5A5A5" fill-rule="nonzero" d="M2371.51 2878.45l0 48.22 -279.39 0 19.72 25.01c3.36,4.2 5.28,9.2 5.66,14.55l1.42 25.49 252.59 0 0 10.74c0,26.45 21.45,47.91 47.91,47.91l458.49 0c26.45,0 48.02,-21.45 48.02,-47.91l0 -124 -554.41 0zm503.9 131.1l-453.4 0 0 -29.23 453.4 0 0 29.23zm0 -65.94l-453.4 0 0 -29.12 453.4 0 0 29.12z"/>
    <path fill="#A5A5A5" fill-rule="nonzero" d="M3985 2963.26l86.23 0c15.72,0 28.46,12.76 28.46,28.46l0 49.06c0,15.72 -12.74,28.44 -28.46,28.44l-86.23 0c-15.81,0 -28.57,-12.73 -28.57,-28.44l0 -49.06c0,-15.7 12.76,-28.46 28.57,-28.46z"/>
    <polygon fill="#00724C" fill-rule="nonzero" points="2948.34,2821.93 2948.34,1936.18 3614.94,2821.93 "/>
    <polygon fill="#00724C" fill-rule="nonzero" points="4155.83,2604.91 4155.83,2325.3 3856.98,2036.32 3864.06,2025.5 4264.88,2183.02 4351.96,2438.64 4254.64,2683.78 "/>
    <polygon fill="#00724C" fill-rule="nonzero" points="2208.69,1905.62 2903.7,1905.62 2903.7,2829.03 "/>
    <path fill="#00724C" fill-rule="nonzero" d="M3693.89 2821.93l0 -885.07 405.89 405.71 0 479.36c0,0 -405.89,0 -405.89,0zm253.63 -232.94c-0.09,0 -0.29,0 -0.37,0.2l-35.36 60.96 34.78 57.47 0.77 -15.34 0 -6.5 6.52 -0.09c5.08,-0.11 13.02,-0.11 20.5,-0.11 5.48,0 10.72,0 14.57,0.11 8.05,-0.11 13.78,-3.38 17.82,-10.17 11.01,-19.08 31.71,-54.33 40.06,-68.5l-1.62 -4.42 3.63 -3.36c3.72,-3.16 6.88,-7.1 9.09,-11.32 5.77,-11.01 5.39,-23.73 -1.06,-34.29 -8.14,-13.51 -22.78,-39.56 -28.54,-50.12l-1.06 -1.61c-0.29,-0.49 -0.47,-0.79 -0.86,-0.89l-0.09 0 -1.17 0.11c-18.77,10.44 -50.97,27.59 -62.73,33.81 -0.31,0.2 -0.6,0.49 -0.79,0.97 -0.11,0.18 -0.11,0.58 0.18,1.24l1.06 1.83c6.23,11.3 23.19,42.06 34.69,62.37l5.57 9.99 -55.39 -0.58 0.29 -21.36 -0.49 -6.99 0 6.59zm-209.06 -66.86l13.22 8.05 5.75 3.16 -3.16 5.73c-4.13,7.69 -12.38,22.82 -16.87,30.76 -3.91,6.88 -3.82,13.62 0.38,20.5 11.5,19.15 32.95,54.99 40.64,68.03l4.78 0.68 1.15 4.6c0.95,5.08 2.78,9.58 5.44,13.6 6.54,9.86 17.36,15.72 29.05,15.72l1.81 0c15.06,-0.77 42.58,-0.95 55.79,-1.04l3.82 0c0.29,0 0.68,-0.09 1.17,-0.58l0 -0.11 0.29 -0.86c-0.2,-19.06 0.26,-49.06 0.46,-65.14l0.09 -6.13c0,-0.2 -0.09,-0.66 -0.38,-1.06l-0.27 0 -0.86 -0.49c-10.55,0 -48.78,0 -73.59,0.29l-11.48 0.2 27.18 -48.29 18.6 10.44 -35.84 -60.83 -0.2 -0.2c0,0 -66.97,2.98 -66.97,2.98zm113.36 -10.84c0.29,-0.11 0.57,-0.27 0.86,-0.66 5.48,-9.02 24.92,-41.88 37.45,-63.35l5.77 -9.86 27.5 48.11 -18.59 10.52 70.62 0.49 32.11 -59.01 -13.62 7.19 -5.66 3.32 -7.56 -12.73c-4.53,-7.69 -10.15,-17.34 -13.51,-23.2 -3.94,-6.99 -9.6,-10.26 -17.75,-10.26l-79.33 0 -2.98 3.65 -4.77 -1.35c-4.05,-1.52 -8.25,-2.3 -12.67,-2.3l-1.72 0c-12.36,0.69 -23.3,7.49 -29.14,18.33 -7.56,14.37 -23.08,40.53 -28.96,50.39l-0.75 1.44c-0.29,0.46 -0.29,0.77 -0.2,1.15 0.11,0.37 0.29,0.66 0.6,0.86 10.72,6.34 24.88,14.84 36.97,22.33 12.09,7.38 22.04,13.6 24.04,14.82l0.2 -0.07 1.06 0.18z"/>
    <polygon fill="#00724C" fill-rule="nonzero" points="4155.83,2834.01 4155.83,2659.15 4301.94,2759.63 4289.22,2900.98 "/>
    <polygon fill="#00724C" fill-rule="nonzero" points="2169.13,2821.93 2169.13,1932.26 2838.72,2821.93 "/>
    <polygon fill="#00724C" fill-rule="nonzero" points="2984.93,1905.62 3649.34,1905.62 3649.34,2788.39 "/>
    <path fill="#00724C" fill-rule="nonzero" d="M1582.07 2600.51c-8.34,0 -15.15,-6.81 -15.15,-15.15 0,-8.33 6.81,-15.14 15.15,-15.14l80.39 0c8.34,0 15.14,6.81 15.14,15.14 0,8.34 -6.79,15.15 -15.14,15.15l-80.39 0z"/>
    <path fill="#009919" fill-rule="nonzero" d="M2071.62 2032.2l-0.69 -0.2 -70.24 1.55 0 -14.77c0,-15.14 -12.36,-27.5 -27.59,-27.5l-366.33 0c-5.44,0 -10.81,1.64 -15.41,4.71l-71.88 48.47 -29.59 0.66c-15.34,0.18 -30.4,4.31 -43.52,11.5 -22.88,12.36 -57.56,36.7 -92.44,81.83 -8.75,11.32 -19.75,28.28 -32.88,50.32l-2.21 3.63 2.41 3.56c1.81,2.57 2.78,5.73 2.78,8.8l0 42.83 12.07 -18.2c17.73,-26.55 35.36,-50.88 52.71,-72.44 25.09,-31.42 62.55,-49.51 102.81,-49.51l218.46 0c16.87,0 30.56,13.58 30.56,30.45l0 263.5c0,1.44 -0.07,2.96 -0.16,4.42 -0.89,10.81 -4.82,18.75 -4.82,18.75l-8.51 7.49 -1.92 1.83 -3.27 2.7 -85.64 69.36c-6.13,4.98 -13.91,7.76 -22.05,7.76l-364.39 0c-9.68,0 -17.64,-7.96 -17.64,-17.75l0 -39.65c0,-15.81 2.98,-31.24 8.71,-45.9 6.52,-16.39 13.15,-31.71 19.64,-45.81l0.68 -1.24 0 -40.71 9.49 -55.1c-36.81,70.24 -95.25,195.57 -113.74,233.03 -10.26,21.07 -15.7,44.55 -15.7,67.84l0 126.83 34.58 0c8.34,0 15.14,6.74 15.14,14.97l0 186.73c0,8.25 -6.79,15.04 -15.14,15.04l-37.19 0 0 35.18 7.39 -0.77 1.24 -0.29 252.79 0c10.81,0 20.1,7.65 22.11,18.4l1.06 5.37 124.09 0c11.98,0 23.08,-5.93 29.78,-15.83l82.69 -122.25c5.77,-8.53 15.26,-14 25.6,-14.66l50.21 -3.27 0 0.09 236.89 -15.14c0.66,0 1.31,-0.09 1.92,-0.09 10.52,0 20.21,4.71 26.64,12.85l62.73 79.33 28.46 -28.46c13.22,-13.22 20.61,-30.85 20.7,-49.64l0 -703.37c-0.2,-66.24 -37.08,-76.3 -41.37,-77.25zm-409.16 565.9l-80.39 0c-6.92,0 -12.65,-5.75 -12.65,-12.74 0,-6.88 5.73,-12.65 12.65,-12.65l80.39 0c6.99,0 12.73,5.77 12.73,12.65 0,6.99 -5.73,12.74 -12.73,12.74zm380.59 -293.87c0,6.79 -5.55,12.36 -12.45,12.36l-228.45 0c-6.79,0 -12.36,-5.57 -12.36,-12.36l0 -184.36c0,-6.9 5.57,-12.43 12.36,-12.43l228.45 0c6.9,0 12.45,5.53 12.45,12.43l0 184.36z"/>
    <path fill="#009919" fill-rule="nonzero" d="M1740.83 2405.81l0 405.2 -18.88 1.35 0 -375.79 3.27 -2.7 1.92 -1.83 8.51 -7.49c0,0 3.93,-7.94 4.82,-18.75l0.37 0z"/>
    <polygon fill="#009919" fill-rule="nonzero" points="4386.95,2437.03 4291.88,2158.01 3815.01,1985.64 3812.5,2004.5 3859.46,2029.42 4262.96,2184.85 4349.59,2438.18 4253.58,2679.74 4155.83,2601.75 4155.83,2662.11 4299.37,2760.89 4287.12,2897.17 4155.83,2831.31 4155.83,2880.48 4313.08,2959.33 4332.54,2742.78 4282.02,2702.54 "/>
    <path fill="#5F5D5D" fill-rule="nonzero" d="M1276.68 2186.85l31.91 0c9.86,0 17.93,7.94 17.93,17.91l0 226.13c0,9.86 -8.07,17.93 -17.93,17.93l-31.91 0c-9.86,0 -17.91,-8.07 -17.91,-17.93l0 -226.13c0,-9.97 8.05,-17.91 17.91,-17.91z"/>
    <path fill="#474443" fill-rule="nonzero" d="M1122.52 2710.32c0,-9.69 7.87,-17.55 17.44,-17.55l36.02 0c9.6,0 17.45,7.85 17.45,17.55l0 186.62c0,9.6 -7.85,17.45 -17.45,17.45l-36.02 0c-9.57,0 -17.44,-7.85 -17.44,-17.45l0 -186.62z"/>
    <path fill="#009919" fill-rule="nonzero" d="M3679.99 1846.51l-1569.49 0 0 1034.47 2047.83 0 0 -556.13c0,0 -478.34,-478.34 -478.34,-478.34zm-780.42 972.94l-685.97 -911.41 687.6 0 0 911.41c0,0 -1.62,0 -1.62,0zm51.14 -875.98l659.23 875.98 -659.23 0 0 -875.98zm39.11 -35.44l657.02 0 0 872.98 -657.02 -872.98zm-818.28 31.51l662.2 879.9 -662.2 0c0,0 0,-879.9 0,-879.9zm1925.76 879.9l-400.91 0 0 -876.72 400.91 400.41 0 476.31z"/>
    <g>
     <path fill="#474443" fill-rule="nonzero" d="M3202.73 3330.35c-119.38,0 -216.55,-97.07 -216.55,-216.46 0,-119.49 97.16,-216.55 216.55,-216.55 119.38,0 216.55,97.05 216.55,216.55 0,119.38 -97.16,216.46 -216.55,216.46zm0 -347.05c-71.97,0 -130.59,58.53 -130.59,130.59 0,71.84 58.62,130.41 130.59,130.41 71.95,0 130.5,-58.57 130.5,-130.41 0,-72.06 -58.55,-130.59 -130.5,-130.59z"/>
     <path fill="#474443" fill-rule="nonzero" d="M1842.51 3330.35c-119.38,0 -216.55,-97.07 -216.55,-216.46 0,-119.49 97.16,-216.55 216.55,-216.55 119.38,0 216.53,97.05 216.53,216.55 0,119.38 -97.15,216.46 -216.53,216.46zm0 -347.05c-71.97,0 -130.52,58.53 -130.52,130.59 0,71.84 58.55,130.41 130.52,130.41 71.93,0 130.48,-58.57 130.48,-130.41 0,-72.06 -58.55,-130.59 -130.48,-130.59z"/>
     <path fill="#474443" fill-rule="nonzero" d="M3711.05 3330.35c-119.4,0 -216.57,-97.07 -216.57,-216.46 0,-119.49 97.16,-216.55 216.57,-216.55 119.4,0 216.55,97.05 216.55,216.55 0,119.38 -97.15,216.46 -216.55,216.46zm0 -347.05c-72.06,0 -130.61,58.53 -130.61,130.59 0,71.84 58.55,130.41 130.61,130.41 71.95,0 130.5,-58.57 130.5,-130.41 0,-72.06 -58.55,-130.59 -130.5,-130.59z"/>
    </g>
    <path fill="#A5A6A5" fill-rule="nonzero" d="M3202.73 3246.81c-73.39,0 -133,-59.61 -133,-132.91 0,-73.39 59.61,-133 133,-133 73.28,0 132.89,59.61 132.89,133 0,73.3 -59.61,132.91 -132.89,132.91zm0 -77.81c-8.54,0 -15.43,6.99 -15.43,15.43 0,8.51 6.88,15.52 15.43,15.52 8.54,0 15.43,-7.01 15.43,-15.52 0,-8.43 -6.88,-15.43 -15.43,-15.43zm70.62 -70.62c-8.54,0 -15.43,6.97 -15.43,15.52 0,8.43 6.88,15.43 15.43,15.43 8.51,0 15.43,-6.99 15.43,-15.43 0,-8.54 -6.92,-15.52 -15.43,-15.52zm-141.24 0c-8.54,0 -15.43,6.97 -15.43,15.52 0,8.43 6.88,15.43 15.43,15.43 8.53,0 15.43,-6.99 15.43,-15.43 0,-8.54 -6.9,-15.52 -15.43,-15.52zm70.62 -70.53c-8.54,0 -15.43,6.88 -15.43,15.43 0,8.43 6.88,15.43 15.43,15.43 8.54,0 15.43,-6.99 15.43,-15.43 0,-8.54 -6.88,-15.43 -15.43,-15.43z"/>
    <path fill="#A5A6A5" fill-rule="nonzero" d="M1842.51 3246.81c-73.39,0 -133,-59.61 -133,-132.91 0,-73.39 59.61,-133 133,-133 73.28,0 132.89,59.61 132.89,133 0,73.3 -59.61,132.91 -132.89,132.91zm0 -77.81c-8.54,0 -15.45,6.99 -15.45,15.43 0,8.51 6.9,15.52 15.45,15.52 8.51,0 15.43,-7.01 15.43,-15.52 0,-8.43 -6.92,-15.43 -15.43,-15.43zm70.62 -70.62c-8.54,0 -15.43,6.97 -15.43,15.52 0,8.43 6.88,15.43 15.43,15.43 8.51,0 15.43,-6.99 15.43,-15.43 0,-8.54 -6.92,-15.52 -15.43,-15.52zm-141.24 0c-8.54,0 -15.45,6.97 -15.45,15.52 0,8.43 6.9,15.43 15.45,15.43 8.53,0 15.43,-6.99 15.43,-15.43 0,-8.54 -6.9,-15.52 -15.43,-15.52zm70.62 -70.53c-8.54,0 -15.45,6.88 -15.45,15.43 0,8.43 6.9,15.43 15.45,15.43 8.51,0 15.43,-6.99 15.43,-15.43 0,-8.54 -6.92,-15.43 -15.43,-15.43z"/>
    <path fill="#A5A6A5" fill-rule="nonzero" d="M3711.05 3246.81c-73.41,0 -133.09,-59.61 -133.09,-132.91 0,-73.39 59.68,-133 133.09,-133 73.3,0 132.91,59.61 132.91,133 0,73.3 -59.61,132.91 -132.91,132.91zm0 -77.81c-8.53,0 -15.43,6.99 -15.43,15.43 0,8.51 6.9,15.52 15.43,15.52 8.53,0 15.41,-7.01 15.41,-15.52 0,-8.43 -6.88,-15.43 -15.41,-15.43zm70.6 -70.62c-8.51,0 -15.39,6.97 -15.39,15.52 0,8.43 6.88,15.43 15.39,15.43 8.54,0 15.43,-6.99 15.43,-15.43 0,-8.54 -6.88,-15.52 -15.43,-15.52zm-141.22 0c-8.53,0 -15.43,6.97 -15.43,15.52 0,8.43 6.9,15.43 15.43,15.43 8.53,0 15.45,-6.99 15.45,-15.43 0,-8.54 -6.92,-15.52 -15.45,-15.52zm70.62 -70.53c-8.53,0 -15.43,6.88 -15.43,15.43 0,8.43 6.9,15.43 15.43,15.43 8.53,0 15.41,-6.99 15.41,-15.43 0,-8.54 -6.88,-15.43 -15.41,-15.43z"/>
    <path fill="#5F5D5D" fill-rule="nonzero" d="M1842.51 3061.08c-9.9,0 -17.95,-8.03 -17.95,-17.8 0,-9.86 8.05,-17.93 17.95,-17.93 9.86,0 17.89,8.07 17.89,17.93 0,9.77 -8.03,17.8 -17.89,17.8z"/>
    <path fill="#5F5D5D" fill-rule="nonzero" d="M1913.13 3131.7c-9.9,0 -17.93,-8.03 -17.93,-17.89 0,-9.86 8.03,-17.84 17.93,-17.84 9.77,0 17.8,7.98 17.8,17.84 0,9.86 -8.03,17.89 -17.8,17.89z"/>
    <path fill="#5F5D5D" fill-rule="nonzero" d="M1771.89 3131.7c-9.86,0 -17.95,-8.03 -17.95,-17.89 0,-9.86 8.09,-17.84 17.95,-17.84 9.86,0 17.89,7.98 17.89,17.84 0,9.86 -8.03,17.89 -17.89,17.89z"/>
    <path fill="#5F5D5D" fill-rule="nonzero" d="M1842.51 3202.33c-9.9,0 -17.95,-8.05 -17.95,-17.91 0,-9.9 8.05,-17.93 17.95,-17.93 9.86,0 17.89,8.03 17.89,17.93 0,9.86 -8.03,17.91 -17.89,17.91z"/>
    <path fill="#5F5D5D" fill-rule="nonzero" d="M3132.12 3131.7c-9.86,0 -17.91,-8.03 -17.91,-17.89 0,-9.86 8.05,-17.84 17.91,-17.84 9.86,0 17.91,7.98 17.91,17.84 0,9.86 -8.05,17.89 -17.91,17.89z"/>
    <path fill="#5F5D5D" fill-rule="nonzero" d="M3273.24 3131.7c-9.86,0 -17.82,-8.03 -17.82,-17.89 0,-9.86 7.96,-17.84 17.82,-17.84 9.88,0 17.93,7.98 17.93,17.84 0,9.86 -8.05,17.89 -17.93,17.89z"/>
    <path fill="#5F5D5D" fill-rule="nonzero" d="M3202.73 3061.08c-9.86,0 -17.93,-8.03 -17.93,-17.8 0,-9.86 8.07,-17.93 17.93,-17.93 9.86,0 17.8,8.07 17.8,17.93 0,9.77 -7.94,17.8 -17.8,17.8z"/>
    <path fill="#5F5D5D" fill-rule="nonzero" d="M3202.73 3202.33c-9.86,0 -17.93,-8.05 -17.93,-17.91 0,-9.9 8.07,-17.93 17.93,-17.93 9.86,0 17.8,8.03 17.8,17.93 0,9.86 -7.94,17.91 -17.8,17.91z"/>
    <path fill="#5F5D5D" fill-rule="nonzero" d="M3710.96 3202.33c-9.79,0 -17.84,-8.05 -17.84,-17.91 0,-9.9 8.05,-17.93 17.84,-17.93 9.86,0 17.91,8.03 17.91,17.93 0,9.86 -8.05,17.91 -17.91,17.91z"/>
    <path fill="#5F5D5D" fill-rule="nonzero" d="M3640.43 3131.7c-9.88,0 -17.93,-8.03 -17.93,-17.89 0,-9.86 8.05,-17.84 17.93,-17.84 9.86,0 17.82,7.98 17.82,17.84 0,9.86 -7.96,17.89 -17.82,17.89z"/>
    <path fill="#5F5D5D" fill-rule="nonzero" d="M3710.96 3061.08c-9.79,0 -17.84,-8.03 -17.84,-17.8 0,-9.86 8.05,-17.93 17.84,-17.93 9.86,0 17.91,8.07 17.91,17.93 0,9.77 -8.05,17.8 -17.91,17.8z"/>
    <path fill="#5F5D5D" fill-rule="nonzero" d="M3781.58 3131.7c-9.88,0 -17.84,-8.03 -17.84,-17.89 0,-9.86 7.96,-17.84 17.84,-17.84 9.86,0 17.91,7.98 17.91,17.84 0,9.86 -8.05,17.89 -17.91,17.89z"/>
    <path fill="#A5A6A5" fill-rule="nonzero" d="M1421.08 3099.53l1.26 -7.69c0.18,-1.13 0.29,-2.37 0.29,-3.61l0 -120.75 124.75 0c11.12,0 21.47,-5.53 27.77,-14.75l82.69 -122.27c6.13,-9.18 16.39,-15.03 27.42,-15.79l287.17 -18.22c0.77,-0.07 1.53,-0.07 2.19,-0.07 11.14,0 21.49,4.97 28.37,13.67l110.77 140.11c3.65,4.6 5.75,10.15 6.12,15.99l6.04 100.71c0.2,3.93 -1.13,7.76 -3.93,10.72 -2.78,2.9 -6.41,4.53 -10.42,4.53l-20.05 0c-4.02,0 -7.65,-1.62 -10.44,-4.53 -2.78,-2.76 -4.13,-6.5 -4.02,-10.35 1.15,-27.66 -2.68,-99.63 -62.38,-169.68 -26.05,-30.58 -64.1,-49.33 -104.25,-51.45 -24.99,-1.35 -49.06,-2.01 -71.48,-2.01 -19.06,0 -36.99,0.47 -52.98,1.42 -55.67,3.45 -104.72,34.12 -131.36,82.03 -5.66,10.24 -10.55,20.5 -14.37,30.56 -15.34,39.86 -37.66,92.18 -49.55,119.77 -5.64,13.13 -18.6,21.67 -32.97,21.67 0,0 -136.64,0 -136.64,0z"/>
    <path fill="#A5A6A5" fill-rule="nonzero" d="M1134.11 3011.86l52.51 0c6.41,0 11.59,5.17 11.59,11.58l0 36.33c0,6.43 -5.19,11.67 -11.59,11.67l-52.51 0c-6.43,0 -11.59,-5.24 -11.59,-11.67l0 -36.33c0,-6.41 5.17,-11.58 11.59,-11.58z"/>
    <path fill="#A5A5A5" fill-rule="nonzero" d="M1147.99 3120.89c-6.88,0 -13.22,-2.5 -17.89,-7.08 -4.89,-4.78 -7.58,-11.12 -7.58,-17.95l0 -30.45 8.73 2.98c1.04,0.38 2.01,0.58 2.87,0.58l52.51 0c5.09,0 9.18,-4.13 9.18,-9.2l0 -36.33c0,-5.08 -4.09,-9.2 -9.18,-9.2l-52.51 0c-0.86,0 -1.83,0.2 -2.87,0.58l-8.73 2.98 0 -49.15c0,-13.71 11.19,-25.03 25.01,-25.03l252.59 0c13.77,0 24.99,11.32 24.99,25.03l0 119.58c0,13.6 -10.63,24.61 -24.25,24.98l-252.68 7.69c0,0 -0.2,0 -0.2,0z"/>
    <path fill="#474443" fill-rule="nonzero" d="M2961.17 3247.76c48.49,62.57 152.45,134.32 314,335.16 -34.8,25.96 -73.03,49.26 -114.13,69.56 -138.08,-243.66 -220,-332.68 -255.54,-404.72l55.67 0zm85.48 0l-64.48 0c53.18,58.26 163.57,122.94 328.94,306.14 32.48,-28.08 61.22,-58.53 85.55,-91.14 -161.74,-128.38 -283.72,-171.42 -350.01,-215zm-212.82 0c18.6,80.28 64.19,185.49 146.42,469.5 47.5,-11.39 92.95,-26.25 135.67,-44.26 -125.72,-256.31 -198.64,-350.5 -229.6,-425.24l-52.49 0zm239.53 0c70.82,37.08 193.47,72.04 347.72,179.08 21.27,-34.21 37.85,-70.25 49.17,-107.81 -106.17,-42.83 -205.63,-57.11 -281.05,-71.28l-115.84 0zm-309.49 0c2.21,83.34 7.59,195.19 17.64,495.28 50.61,-1.33 99.94,-6.41 147.48,-15.04 -64.19,-290.73 -99.46,-398.61 -113.74,-480.23l-51.38 0zm721.25 0l-177.39 0c53.95,5.84 112.99,14.48 172.57,31.33 2.03,-10.37 3.56,-20.78 4.82,-31.33zm-936.83 0c-48.47,62.57 -152.45,134.32 -313.91,335.16 34.69,25.96 72.94,49.26 114.05,69.56 138.06,-243.66 220,-332.68 255.54,-404.72l-55.68 0zm-85.37 0c-66.4,43.58 -188.38,86.61 -350.13,215 24.35,32.61 53.09,63.06 85.59,91.14 165.37,-183.19 275.86,-247.88 328.94,-306.14l-64.39 0zm160.3 0c-31.06,74.74 -103.94,168.93 -229.56,425.24 42.72,18 88.04,32.86 135.58,44.26 82.3,-284.01 127.82,-389.22 146.4,-469.5l-52.42 0zm-302.98 0c-75.31,14.17 -174.78,28.44 -281.05,71.28 11.41,37.55 27.9,73.59 49.17,107.81 154.27,-107.04 276.91,-142 347.72,-179.08l-115.84 0zm373.98 0c-14.28,81.63 -49.44,189.51 -113.72,480.23 47.5,8.64 96.87,13.71 147.55,15.04 9.97,-300.09 15.32,-411.94 17.53,-495.28l-51.36 0zm-492.5 0l-177.35 0c1.24,10.55 2.78,20.96 4.87,31.33 59.61,-16.85 118.53,-25.49 172.47,-31.33z"/>
   </g>
   <path fill="#5F5D5D" fill-rule="nonzero" d="M6675 2925.63l0 53.02 -479.41 0 0 -53.02 479.41 0zm-16.91 -120.13l0 53.02 -451.22 0 0 -53.02 451.22 0zm-13.55 232.92l0 51.9 -197.96 148.89 -50.77 -28.19 159.62 -119.58 -328.81 0 0 -53.02 19.74 0 137.62 -280.3 67.68 0 -137.62 280.3 330.51 0zm-196.26 232.38l-186.7 -140.43 92.49 0 187.26 140.43 -93.06 0z"/>
   <path id="_1" fill="#5F5D5D" fill-rule="nonzero" d="M7002.86 2758.12l62.6 0 0 465.87 -62.6 0 0 -465.87zm144.96 0l62.6 0 0 465.87 -62.6 0 0 -465.87zm-269.6 54.13l62.04 0 29.89 289.9 -62.04 0 -29.89 -289.9zm365.47 289.9l30.47 -289.9 61.47 0 -29.89 289.9 -62.06 0zm-384.09 99.83l494.09 0 0 51.9 -494.09 0 0 -51.9z"/>
   <path id="_2" fill="#5F5D5D" fill-rule="nonzero" d="M7859.37 2794.21c0,-2.26 0.66,-4.24 1.97,-5.93 1.31,-1.68 2.74,-2.54 4.24,-2.54l48.51 0c1.5,0 2.9,0.86 4.22,2.54 1.31,1.7 1.99,3.67 1.99,5.93l0 441.62c0,2.26 -0.68,4.24 -1.99,5.92 -1.31,1.7 -2.72,2.54 -4.22,2.54l-48.51 0c-1.5,0 -2.92,-0.84 -4.24,-2.54 -1.31,-1.68 -1.97,-3.65 -1.97,-5.92l0 -441.62z"/>
   <path id="_3" fill="#5F5D5D" fill-rule="nonzero" d="M8817.25 3125.85l0 46.25 -473.79 0 0 -46.25 50.21 0 0 -266.23 157.36 0 0 -29.32 -196.28 0 0 -47.38 196.28 0 0 -24.81 60.92 0 0 24.81 194.02 0 0 47.38 -194.02 0 0 29.32 155.09 0 0 266.23 50.21 0zm-111.11 0l0 -219.96 -251.56 0 0 28.19 253.24 0 0 36.09 -253.24 0 0 27.64 253.24 0 0 36.09 -253.24 0 0 28.21 253.24 0 0 36.09 -253.24 0 0 27.64 251.56 0zm-250.43 63.17l83.47 0 -94.19 64.87 -83.47 0 94.19 -64.87zm249.3 0l94.19 64.87 -83.47 0 -94.19 -64.87 83.47 0z"/>
   <path id="_4" fill="#5F5D5D" fill-rule="nonzero" d="M9049.21 2864.7l-24.25 -106.58 57.53 0 24.81 106.58 -58.09 0zm95.89 337.28l-17.47 51.9 -78.41 0 0 -296.11 -38.91 0 0 -52.45 96.45 0 0 296.66 38.34 0zm69.94 -280.87l119.57 0 0 321.49 -85.72 0 -14.11 -52.45 41.74 0 0 -216.02 -61.47 0 0 279.75 -58.09 0 0 -467.58 279.75 0 0 -28.19 58.09 0 0 80.08 -279.75 0 0 82.92zm279.75 -6.21l0 94.75 -139.32 216.58 0 -94.19 139.32 -217.15zm-24.81 285.96l38.34 0 -15.79 53.02 -68.81 0 -100.4 -495.77 59.79 0 86.87 442.75z"/>
   <path id="_5" fill="#5F5D5D" fill-rule="nonzero" d="M10007.25 2794.21c0,-2.26 0.66,-4.24 1.97,-5.93 1.31,-1.68 2.74,-2.54 4.24,-2.54l48.51 0c1.5,0 2.9,0.86 4.22,2.54 1.31,1.7 1.99,3.67 1.99,5.93l0 441.62c0,2.26 -0.68,4.24 -1.99,5.92 -1.31,1.7 -2.72,2.54 -4.22,2.54l-48.51 0c-1.5,0 -2.92,-0.84 -4.24,-2.54 -1.31,-1.68 -1.97,-3.65 -1.97,-5.92l0 -441.62z"/>
   <path id="_6" fill="#5F5D5D" fill-rule="nonzero" d="M10965.13 2847.8l0 41.74 -473.22 0 0 -41.74 205.87 0 0 -28.21 -192.32 0 57.53 -61.47 64.3 0 -16.36 19.74 86.85 0 0 -19.74 60.92 0 0 19.74 195.15 0 0 41.74 -195.15 0 0 28.21 206.43 0zm-142.7 341.79l131.41 0 0 41.74 -131.41 0 0 22.57 -60.92 0 0 -231.81 -65.98 0 0 231.81 -60.92 0 0 -22.57 -131.98 0 0 -41.74 131.98 0 0 -28.77 -120.7 0 0 -41.74 120.7 0 0 -30.45 -126.34 0 0 -41.74 126.34 0 0 -26.51 -116.19 0 0 -104.34 420.75 0 0 104.34 -62.04 0 0 -66 -297.79 0 0 27.64 304.57 0 0 38.36 -61.47 0 0 26.51 125.77 0 0 41.74 -125.77 0 0 30.45 121.26 0 0 41.74 -121.26 0 0 28.77z"/>
   <path id="_7" fill="#5F5D5D" fill-rule="nonzero" d="M11208.93 2864.7l-23.68 -106.58 54.7 0 23.7 106.58 -54.72 0zm106.6 337.28l-19.17 51.9 -90.24 0 0 -296.11 -39.49 0 0 -52.45 97.02 0 0 296.66 51.89 0zm7.89 -176.53l303.45 0 0 229.55 -51.89 0 0 -182.74 -199.66 0 0 45.13 239.13 0 0 41.17 -239.13 0 0 48.51 239.13 0 0 47.92 -291.04 0 0 -229.55zm336.17 -24.81l-368.87 0 0 -45.7 105.47 0 0 -108.28 -94.75 0 0 -45.68 347.43 0 0 45.68 -93.07 0 0 108.28 103.79 0 0 45.7zm-210.38 -45.7l53.57 0 0 -108.28 -53.57 0 0 108.28zm-77.28 -21.98l-50.19 0 -15.79 -63.74 50.75 0 15.23 63.74zm206.43 0l14.66 -63.74 50.77 0 -15.23 63.74 -50.21 0zm-141 -120.15l-50.77 0 -18.6 -53.02 51.32 0 18.06 53.02zm79.53 0l18.04 -53.02 51.34 0 -17.49 53.02 -51.89 0z"/>
   <path fill="#009919" fill-rule="nonzero" d="M6246.34 1881.83l119.77 -282.47 134.08 0 -121.06 282.47 -132.78 0zm55.98 -84.62l145.8 0 0 632.66 -145.8 0 0 -632.66zm-104.14 -53.37l173.13 0 0 137.99 -140.58 0 -32.55 -137.99zm45.57 -177.04l121.06 -281.18 135.38 0 -122.36 281.18 -134.08 0zm-48.18 -139.28l174.45 0 0 139.28 -140.6 0 -33.85 -139.28zm1116.92 1002.35l-151 0 0 -562.36 -275.97 0 0 68.99 281.18 0 0 109.34 -281.18 0 0 70.29 281.18 0 0 106.75 -281.18 0 0 68.99 281.18 0 0 137.99 -433.48 0 0 -701.66 579.28 0 0 701.66zm-637.87 0l-156.21 0 0 -1106.49 855.25 0 -46.87 139.28 -652.18 0 0 967.21zm256.46 -765.43l-259.05 0 0 -128.88 259.05 0 0 -104.14 161.41 0 0 104.14 230.4 0 0 128.88 -230.4 0 0 63.77 -161.41 0 0 -63.77z"/>
   <path id="_1_5" fill="#009919" fill-rule="nonzero" d="M7848.79 1447.04l-246.03 0 333.27 -121.06 247.33 0 -334.56 121.06zm633.96 0l-320.23 -121.06 243.42 0 320.23 121.06 -243.42 0zm-838.33 343.67l115.86 0 -24.74 -70.29 162.73 0 24.74 70.29 161.41 0 0 -96.32 -389.22 0 0 -88.53 389.22 0 0 -44.26 -415.26 0 0 -88.53 993.22 0 0 88.53 -416.55 0 0 44.26 390.52 0 0 88.53 -390.52 0 0 200.46 -601.41 0 0 -104.14zm1042.7 104.14l-446.5 0 0 -104.14 167.93 0 23.42 -70.29 162.73 0 -22.13 70.29 114.55 0 0 104.14zm-909.92 31.24l128.88 0 -115.86 89.82 -132.78 0 119.77 -89.82zm255.14 0l106.73 89.82 -130.17 0 -106.73 -89.82 130.17 0zm-74.2 338.45l0 165.34 -313.73 0 0 -87.23 44.26 0 -3.91 -48.16 114.56 0 5.2 48.16 37.76 0 0 -78.1 -149.71 0 0 -88.51 149.71 0 0 -45.57 -173.13 0 0 -88.51 460.81 0 0 88.51 -171.82 0 0 45.57 148.39 0 0 88.51 -148.39 0zm153.6 78.1l41.66 0 0 87.23 -201.78 0 0 -87.23 42.96 0 5.2 -48.16 115.86 0 -3.91 48.16zm209.59 -416.55l121.06 0 -119.77 89.82 -131.47 0 130.17 -89.82zm209.57 0l106.75 89.82 -130.17 0 -106.75 -89.82 130.17 0zm-39.05 338.45l0 165.34 -315.03 0 0 -87.23 46.87 0 -5.2 -48.16 114.55 0 3.91 48.16 37.76 0 0 -78.1 -147.1 0 0 -88.51 147.1 0 0 -45.57 -171.84 0 0 -88.51 459.51 0 0 88.51 -170.52 0 0 45.57 147.1 0 0 88.51 -147.1 0zm152.3 78.1l42.96 0 0 87.23 -201.76 0 0 -87.23 42.94 0 5.22 -48.16 114.55 0 -3.91 48.16z"/>
   <path id="_2_6" fill="#009919" fill-rule="nonzero" d="M10132.06 2191.66l-100.23 0 0 238.22 -292.9 0 -40.35 -139.3 169.23 0 0 -98.92 -639.16 0 0 238.22 -164.02 0 0 -238.22 -100.23 0 0 -139.3 100.23 0 0 -493.36 402.24 0 0 -96.32 -471.23 0 0 -139.28 1106.49 0 0 139.28 -471.23 0 0 96.32 400.94 0 0 493.36 100.23 0 0 139.3zm-903.42 -386.63l238.22 0 0 -108.05 -238.22 0 0 108.05zm402.24 -108.05l0 108.05 236.92 0 0 -108.05 -236.92 0zm-402.24 355.37l238.22 0 0 -108.05 -238.22 0 0 108.05zm639.16 0l0 -108.05 -236.92 0 0 108.05 236.92 0z"/>
   <path id="_3_7" fill="#009919" fill-rule="nonzero" d="M11394.75 1884.44l0 139.28 -446.51 0 0 -139.28 446.51 0zm104.14 404.83l0 137.99 -1119.51 0 0 -137.99 495.95 0 0 -265.55 -404.83 0 0 -139.28 404.83 0 0 -252.55 -498.57 0 78.1 -307.21 166.63 0 -39.05 167.93 292.88 0 0 -206.98 162.73 0 0 206.98 403.54 0 0 139.28 -403.54 0 0 657.38 460.83 0z"/>
   <path id="_4_8" fill="#009919" fill-rule="nonzero" d="M12084.67 1534.27l-299.42 -117.17 0 -140.58 299.42 117.16 0 140.6zm114.55 -248.64l169.23 0 -13.02 41.66 462.12 0 0 333.25 -161.41 0 0 -195.26 -514.19 0 57.27 -179.65zm-114.55 454.31l-299.42 117.16 0 -143.19 299.42 -114.55 0 140.58zm39.05 96.32l229.11 -217.39 0 -119.77 165.32 0 0 119.77 89.82 79.4 234.31 0 -45.57 137.99 -253.83 0 -109.36 -100.23 -108.05 100.23 -201.76 0zm-122.38 393.13l-161.41 0 0 -357.99 941.17 0 0 357.99 -161.43 0 0 -222.59 -618.33 0 0 222.59zm-32.53 75.51l259.05 -130.17 0 -123.67 165.32 0 0 123.67 255.14 130.17 182.24 0 -45.55 124.97 -214.79 0 -259.05 -134.08 -277.27 134.08 -201.78 0 -45.55 -124.97 182.24 0z"/>
   <path id="_5_9" fill="#009919" fill-rule="nonzero" d="M13300.5 1659.22l115.84 287.7 -154.91 0 -114.55 -287.7 153.62 0zm-22.15 -335.84l114.56 287.68 -153.62 0 -114.55 -287.68 153.6 0zm-75.49 972.41l62.48 -268.16 151 0 -93.71 402.24 -175.74 0 -36.44 -134.08 92.42 0zm1063.53 -833.13l-678.22 0 0 967.21 -153.6 0 0 -1106.49 831.81 0 0 139.28zm-11.72 106.75l0 550.63 -242.13 0 0 309.82 -171.84 0 -37.74 -137.99 67.68 0 0 -171.84 -218.68 0 0 -550.63 173.13 0 15.61 -66.4 143.21 0 -14.33 66.4 285.08 0zm-143.19 139.28l-316.32 0 0 78.1 373.6 0 0 117.16 -373.6 0 0 78.1 316.32 0 0 -273.36zm-304.6 463.42l-39.05 243.42 -139.3 0 39.05 -243.42 139.3 0zm385.32 0l42.96 243.42 -140.6 0 -42.96 -243.42 140.6 0zm-79.42 243.42l0 -139.28 173.13 0 -37.74 139.28 -135.39 0z"/>
  </g>
 </g>
</svg>
