<?xml version="1.0" encoding="UTF-8"?>
<!DOCTYPE svg PUBLIC "-//W3C//DTD SVG 1.1//EN" "http://www.w3.org/Graphics/SVG/1.1/DTD/svg11.dtd">
<!-- Creator: CorelDRAW -->
<svg xmlns="http://www.w3.org/2000/svg" xml:space="preserve" width="38.5378mm" height="35.4682mm" version="1.1" shape-rendering="geometricPrecision" text-rendering="geometricPrecision" image-rendering="optimizeQuality" fill-rule="evenodd" clip-rule="evenodd"
viewBox="0 0 1310.86 1206.45"
 xmlns:xlink="http://www.w3.org/1999/xlink"
 xmlns:xodm="http://www.corel.com/coreldraw/odm/2003">
 <defs>
    <linearGradient id="id0" gradientUnits="userSpaceOnUse" x1="655.07" y1="325.36" x2="525.47" y2="178.42">
     <stop offset="0" stop-opacity="1" stop-color="#FAD961"/>
     <stop offset="1" stop-opacity="1" stop-color="#F76B1C"/>
    </linearGradient>
    <linearGradient id="id1" gradientUnits="userSpaceOnUse" x1="589.42" y1="311.08" x2="413.22" y2="255.97">
     <stop offset="0" stop-opacity="1" stop-color="#FAD961"/>
     <stop offset="1" stop-opacity="1" stop-color="#F76B1C"/>
    </linearGradient>
    <linearGradient id="id2" gradientUnits="userSpaceOnUse" x1="727.18" y1="368.22" x2="916.3" y2="341.01">
     <stop offset="0" stop-opacity="1" stop-color="#FAD961"/>
     <stop offset="1" stop-opacity="1" stop-color="#F76B1C"/>
    </linearGradient>
    <linearGradient id="id3" gradientUnits="userSpaceOnUse" x1="690.78" y1="360.4" x2="840.11" y2="225.7">
     <stop offset="0" stop-opacity="1" stop-color="#FAD961"/>
     <stop offset="1" stop-opacity="1" stop-color="#F76B1C"/>
    </linearGradient>
    <linearGradient id="id4" gradientUnits="userSpaceOnUse" x1="689.76" y1="337.61" x2="689.76" y2="148.15">
     <stop offset="0" stop-opacity="1" stop-color="#FAD961"/>
     <stop offset="1" stop-opacity="1" stop-color="#F76B1C"/>
    </linearGradient>
    <linearGradient id="id5" gradientUnits="userSpaceOnUse" x1="505.74" y1="218.9" x2="505.74" y2="517.89">
     <stop offset="0" stop-opacity="1" stop-color="#FAD961"/>
     <stop offset="1" stop-opacity="1" stop-color="#F76B1C"/>
    </linearGradient>
 </defs>
 <g id="圖層_x0020_1">
  <metadata id="CorelCorpID_0Corel-Layer"/>
  <g id="_2933338511584">
   <polygon fill="url(#id0)" points="628.7,346.61 530.61,178.74 472.98,214.61 "/>
   <polygon fill="url(#id1)" points="579.25,345.74 410.22,256.17 392.71,279.58 394.03,309.13 403.67,327.02 "/>
   <polygon fill="url(#id2)" points="722.23,331.35 905.6,341.06 916.51,289.55 908.85,266.05 "/>
   <polygon fill="url(#id3)" points="666.42,336.54 840.4,216.23 783.73,178.04 "/>
   <polygon fill="url(#id4)" points="689.8,148.2 615.86,148.2 652.83,337.67 "/>
   <path fill="#FEFEFE" fill-rule="nonzero" d="M894.85 444.43c51.13,-0.93 129,-1.68 179.56,-2.97 -47.11,-1.05 -121.2,-2.07 -170.34,-2.82 25.77,-51.77 44.82,-106.65 59.07,-162.69l0.54 -2.23 -1.55 -1.82c-66.43,-78.62 -160.19,-135 -262.32,-151.19 -14.42,-2.38 -29.63,-3.61 -44.32,-3.38 -14.71,-0.28 -29.94,1 -44.35,3.38 -102.13,16.19 -195.89,72.55 -262.33,151.17l-1.55 1.84 0.55 2.23c10.87,43.24 24.89,85.48 42.27,126.5 5.16,12.25 10.84,24.28 16.78,36.17 -49.25,0.79 -123.36,1.75 -170.33,2.84 48.65,1.3 125.91,1.85 174.99,2.91l4.61 0.07c0,0 -2.01,-4.29 -2.01,-4.29 -19.12,-39.72 -33.81,-81.44 -46.13,-123.73 -3.84,-13.32 -7.43,-26.81 -10.57,-40.22 56.56,-64.02 130.93,-112.52 213.54,-134.91 27.51,-7.3 56,-12.65 84.53,-12.09 28.51,-0.61 57.02,4.79 84.51,12.09 82.64,22.39 157.01,70.89 213.57,134.89 -3.15,13.43 -6.73,26.92 -10.57,40.26 -12.71,43.81 -28.17,86.92 -48.13,127.98z"/>
   <path fill="#FEFEFE" fill-rule="nonzero" d="M1168.71 415.47c-92.83,-3.03 -189.64,-4.84 -282.99,-6.3 3.39,-7.71 6.73,-15.44 9.87,-23.26 13.1,-32.5 24.78,-65.37 34.67,-99.04l1.2 -4.18c0,0 -2.95,-3.32 -2.95,-3.32 -108.13,-125.23 -272.96,-175.5 -424.48,-96.94 -46.67,23.61 -87.1,58 -121.61,96.92l-2.94 3.32c0,0 1.19,4.19 1.19,4.19 12.32,41.7 27.14,82.48 44.54,122.27 -68.16,1.09 -142.71,2.43 -209.76,4.19 -24.41,0.57 -48.81,1.39 -73.21,2.14 96.08,3.21 196.44,4.91 292.81,6.5 0,0 9.87,0.16 9.87,0.16 -14.95,-34.74 -39.97,-125.72 -42.65,-135.27 65.82,-72.19 154.04,-123.59 253.21,-123.39 68.45,-0.09 135.6,24.73 191.18,64.08 24.28,17.37 41.68,37.42 62.03,59.35 -12.8,45.96 -23.76,91.35 -42.59,135.19 99.65,-1.61 203.25,-3.32 302.61,-6.62z"/>
   <polygon fill="#FEFEFE" fill-rule="nonzero" points="706.94,37.34 671.36,32.18 655.48,0 639.57,32.18 604.01,37.34 629.73,62.41 623.66,97.79 655.48,81.08 687.27,97.79 681.2,62.41 "/>
   <polygon fill="#FEFEFE" fill-rule="nonzero" points="843.87,88.53 815.36,84.4 802.6,58.59 789.85,84.4 761.34,88.53 781.98,108.63 777.1,137 802.6,123.6 828.11,137 823.23,108.63 "/>
   <polygon fill="#FEFEFE" fill-rule="nonzero" points="549.59,88.53 521.09,84.4 508.34,58.59 495.6,84.4 467.07,88.53 487.7,108.63 482.83,137 508.34,123.6 533.83,137 528.98,108.63 "/>
   <polygon fill="#FEFEFE" fill-rule="nonzero" points="494.49,601.72 818.79,601.72 818.79,612.77 494.49,612.77 "/>
   <path fill="#FEFEFE" fill-rule="nonzero" d="M1055.54 585.44c-65.84,-2.23 -137.87,-3.37 -203.92,-4.39 -34.47,54.06 -81.22,101.29 -138.57,130.66 -14.02,7.14 -28.58,13.19 -43.65,17.62 -4.57,1.36 -9.41,2.57 -13.82,3.41 -82.41,-18.85 -149.76,-80.07 -194.91,-149.6l-1.34 -2.07 -2.33 0.04c-65.24,1 -136.66,2.14 -201.61,4.34 64.21,2.14 134.58,3.37 199.15,4.32 45.03,72.96 114.61,138.57 200.04,157.58l0.91 0.16c0,0 0.93,-0.16 0.93,-0.16 21.94,-4.25 42.29,-15.05 62.05,-25.08 57.57,-29.73 104.2,-77.68 137.93,-132.49 64.57,-0.96 135.01,-2.19 199.14,-4.34z"/>
   <path fill="#FEFEFE" fill-rule="nonzero" d="M1126.29 610.95l-334.67 -8.66 -4.12 -0.11 -2.95 3.77c-15.08,23.78 -28.13,44.53 -51.73,60.47 -20.59,13.94 -43.58,24.69 -67.75,30.65 -3.18,0.75 -6.38,1.48 -9.59,1.82 0,0 -0.77,-0.09 -0.77,-0.09 -27.46,-4.84 -53.48,-16.96 -76.55,-32.38 -23.6,-15.94 -36.65,-36.69 -51.74,-60.47l-2.95 -3.77 -4.12 0.11 -334.7 8.66c0,0 315.3,8.34 323.42,8.55 18.12,22.3 39.53,41.72 63.63,56.81 24.69,15.17 51.67,27.31 80.3,32.47 1.71,0.29 3.7,0.49 5.45,0.21 29.22,-4.8 56.71,-17.3 81.83,-32.69 24.1,-15.09 45.51,-34.51 63.63,-56.81 8.12,-0.21 323.39,-8.55 323.39,-8.55z"/>
   <path fill="url(#id5)" d="M804.97 368.46c0,82.57 -66.92,149.49 -149.49,149.49 -82.58,0 -149.51,-66.92 -149.51,-149.49 0,-82.58 66.93,-149.51 149.51,-149.51 82.57,0 149.49,66.92 149.49,149.51z"/>
   <path fill="#474443" fill-rule="nonzero" d="M559.81 344.49l0 -5.6c0,-2.05 1.68,-3.73 3.75,-3.73l111.08 0c2.07,0 3.75,1.68 3.75,3.73l0 5.6 -118.57 0z"/>
   <path fill="#5F5D5D" fill-rule="nonzero" d="M532.37 545.74l-5.91 -7.48 5.25 -5.25c0.71,-0.71 1.36,-1.55 1.91,-2.46l2.29 -3.81 0 9.55 48.61 0 0 9.45 -52.15 0z"/>
   <polygon fill="#A5A6A5" fill-rule="nonzero" points="593.01,554.81 678.42,554.81 678.42,561.18 593.01,561.18 "/>
   <polygon fill="#A5A6A5" fill-rule="nonzero" points="593.01,542.54 678.42,542.54 678.42,548.89 593.01,548.89 "/>
   <path fill="#A5A6A5" fill-rule="nonzero" d="M871.2 566.77l-0.3 -0.79c-5.85,-15.38 -20.83,-25.73 -37.27,-25.73 -12.75,0 -24.85,6.22 -32.35,16.62l-0.37 0.52 -29.24 0 -0.36 -0.52c-7.52,-10.41 -19.6,-16.62 -32.37,-16.62 -13,0 -25.23,6.39 -32.71,17.11l-2.25 3.19 0 -3.16 -17.08 0 0 -21.1 202.42 0 0 16.25 -4.64 0c-2.68,0 -4.86,2.18 -4.86,4.85l0 9.37 -8.62 0z"/>
   <path fill="white" fill-rule="nonzero" d="M838.23 482.84c-0.87,-1.45 -0.89,-2.84 -0.07,-4.29 0.98,-1.73 2.93,-5.32 3.46,-6.33l-0.93 -0.59 -3.88 -2.11 14.67 -0.65 7.98 13.23 -4.75 -2.68 -6.75 11.84c-0.32,0.59 -0.62,1.41 -0.85,2.34l-0.73 2.87c0,0 -6.38,-10.68 -8.16,-13.64z"/>
   <path fill="white" fill-rule="nonzero" d="M853.76 502.17c-2.38,0 -4.5,-1.12 -5.82,-3.1 -1.39,-2.09 -1.6,-4.68 -0.55,-6.93 0.54,-1.13 1.14,-2.25 1.75,-3.35l0.8 -1.49 0.71 0c4.25,-0.05 11.44,-0.07 14.1,-0.09l1.26 0 -0.02 1.25c-0.03,2.38 -0.13,8.34 -0.09,12.29l0 1.23 -1.21 0c-2.34,0.02 -7.73,0.07 -10.64,0.2l-0.28 0z"/>
   <path fill="white" fill-rule="nonzero" d="M887.05 485.66c-2.11,-3.71 -5.57,-10.01 -6.85,-12.34l-0.61 -1.09 1.11 -0.59c1.63,-0.86 7.2,-3.82 10.82,-5.82l1.07 -0.61 0.59 1.07c0.93,1.66 3.71,6.68 5.28,9.25 1.3,2.12 1.38,4.61 0.21,6.84 -1.16,2.23 -3.34,3.66 -5.8,3.82 -1.3,0.07 -2.64,0.07 -3.82,0.07l-1.64 0.02 -0.36 -0.63z"/>
   <path fill="white" fill-rule="nonzero" d="M872.52 462.95l-6.71 -11.87c-0.33,-0.57 -0.9,-1.27 -1.57,-1.95l-2.09 -2.09 15.89 0c1.7,0 2.91,0.69 3.71,2.13 0.98,1.73 3.07,5.25 3.66,6.23l0.98 -0.5 3.8 -2.26 -6.98 12.94 -15.46 0.05c0,0 4.77,-2.7 4.77,-2.7z"/>
   <path fill="white" fill-rule="nonzero" d="M870.5 493.78l7.77 -13.38 -0.09 5.48c0,0 13.64,0.21 13.64,0.21 0.71,0 1.55,-0.13 2.46,-0.36l2.87 -0.77c0,0 -6.3,10.74 -8.03,13.73 -0.82,1.43 -1.98,2.14 -3.45,2.14 -0.11,0 -0.23,0 -0.36,-0.02 -0.63,0 -1.59,-0.01 -2.59,-0.01 -1.84,0 -3.82,0.01 -4.55,0.01l-0.07 1.11 0.02 4.41c0,0 -7.63,-12.55 -7.63,-12.55z"/>
   <path fill="white" fill-rule="nonzero" d="M858.97 467.99c-1.55,-0.97 -6.91,-4.29 -10.5,-6.39l-1.05 -0.62 0.61 -1.06c1.07,-1.8 3.89,-6.6 5.3,-9.22 1.18,-2.2 3.3,-3.52 5.8,-3.64 0.12,0 0.24,0 0.37,0 2.35,0 4.55,1.14 5.85,3.07 0.71,1.07 1.36,2.19 2,3.27l0.84 1.4 -0.37 0.63c-2.12,3.68 -5.8,9.87 -7.16,12.14l-0.64 1.07c0,0 -1.05,-0.64 -1.05,-0.64z"/>
   <path fill="#474443" fill-rule="nonzero" d="M477.99 392.17l42.56 0c1.54,0 2.77,1.24 2.77,2.78l0 34.35c0,1.52 -1.23,2.77 -2.77,2.77l-42.56 0c-1.52,0 -2.76,-1.25 -2.76,-2.77l0 -34.35c0,-1.54 1.24,-2.78 2.76,-2.78z"/>
   <path fill="#474443" fill-rule="nonzero" d="M466.98 398.31l0 49.09c0,2.5 -1.09,4.84 -3.05,6.39l-10.07 8.18 -6.48 5.27c-0.25,0.21 -0.52,0.37 -0.79,0.55 -1.07,0.65 -2.32,0.98 -3.61,0.98l-67.89 0c-2.05,0 -3.73,-1.68 -3.73,-3.75l0 -7.39c0,-3 0.55,-5.95 1.66,-8.73 0.59,-1.51 1.22,-3 1.84,-4.46l2.35 -6.55 0 15.01c0,1.59 1.29,2.87 2.87,2.87l5.95 0c1.57,0 2.87,-1.29 2.87,-2.87l0 -34.95 0.19 -0.3c1.97,-3.05 3.98,-6.02 6.05,-8.87 1.79,-2.5 3.63,-4.89 5.47,-7.19 3.25,-4.07 7.57,-6.95 12.39,-8.37 2.28,-0.68 4.66,-1.04 7.12,-1.04l40.72 0c3.38,0 6.12,2.76 6.12,6.14z"/>
   <path fill="white" fill-rule="nonzero" d="M437.25 468.77l-22.85 0 -19.25 -60c1.79,-2.5 3.63,-4.89 5.47,-7.19 3.25,-4.07 7.57,-6.95 12.39,-8.37l24.24 75.56z"/>
   <path fill="white" fill-rule="nonzero" d="M453.86 461.97l-6.48 5.27c-0.25,0.21 -0.52,0.37 -0.79,0.55l-24.26 -75.62 9.14 0c0,0 22.39,69.8 22.39,69.8z"/>
   <polygon fill="white" fill-rule="nonzero" points="503.9,432.07 494.02,432.07 481.22,392.17 491.09,392.17 "/>
   <path fill="#A5A5A5" fill-rule="nonzero" d="M584.07 536.29l0 8.98 -52.05 0 3.67 4.66c0.63,0.78 0.98,1.71 1.05,2.71l0.27 4.75 47.06 0 0 2c0,4.93 4,8.93 8.93,8.93l85.42 0c4.93,0 8.95,-4 8.95,-8.93l0 -23.1 -103.29 0zm93.88 24.43l-84.47 0 0 -5.45 84.47 0 0 5.45zm0 -12.29l-84.47 0 0 -5.43 84.47 0 0 5.43z"/>
   <path fill="#A5A5A5" fill-rule="nonzero" d="M884.68 552.09l16.07 0c2.93,0 5.3,2.38 5.3,5.3l0 9.14c0,2.93 -2.37,5.3 -5.3,5.3l-16.07 0c-2.95,0 -5.32,-2.37 -5.32,-5.3l0 -9.14c0,-2.93 2.38,-5.3 5.32,-5.3z"/>
   <polygon fill="#00724C" fill-rule="nonzero" points="691.54,525.76 691.54,360.73 815.73,525.76 "/>
   <polygon fill="#00724C" fill-rule="nonzero" points="916.51,485.32 916.51,433.23 860.83,379.39 862.15,377.37 936.82,406.72 953.05,454.35 934.92,500.02 "/>
   <polygon fill="#00724C" fill-rule="nonzero" points="553.73,355.04 683.22,355.04 683.22,527.08 "/>
   <path fill="#00724C" fill-rule="nonzero" d="M830.44 525.76l0 -164.9 75.62 75.59 0 89.31c0,0 -75.62,0 -75.62,0zm47.25 -43.4c-0.02,0 -0.05,0 -0.07,0.04l-6.59 11.36 6.48 10.71 0.14 -2.86 0 -1.21 1.21 -0.02c0.95,-0.02 2.43,-0.02 3.82,-0.02 1.02,0 2,0 2.71,0.02 1.5,-0.02 2.57,-0.63 3.32,-1.89 2.05,-3.55 5.91,-10.12 7.46,-12.76l-0.3 -0.82 0.68 -0.63c0.69,-0.59 1.28,-1.32 1.69,-2.11 1.07,-2.05 1,-4.42 -0.2,-6.39 -1.52,-2.52 -4.25,-7.37 -5.32,-9.34l-0.2 -0.3c-0.05,-0.09 -0.09,-0.15 -0.16,-0.17l-0.02 0 -0.22 0.02c-3.5,1.95 -9.5,5.14 -11.69,6.3 -0.06,0.04 -0.11,0.09 -0.15,0.18 -0.02,0.03 -0.02,0.11 0.03,0.23l0.2 0.34c1.16,2.11 4.32,7.84 6.46,11.62l1.04 1.86 -10.32 -0.11 0.05 -3.98 -0.09 -1.3 0 1.23zm-38.95 -12.46l2.46 1.5 1.07 0.59 -0.59 1.07c-0.77,1.43 -2.31,4.25 -3.14,5.73 -0.73,1.28 -0.71,2.54 0.07,3.82 2.14,3.57 6.14,10.25 7.57,12.67l0.89 0.13 0.21 0.86c0.18,0.95 0.52,1.79 1.01,2.53 1.22,1.84 3.23,2.93 5.41,2.93l0.34 0c2.81,-0.14 7.93,-0.18 10.39,-0.19l0.71 0c0.05,0 0.13,-0.02 0.22,-0.11l0 -0.02 0.05 -0.16c-0.04,-3.55 0.05,-9.14 0.09,-12.14l0.02 -1.14c0,-0.04 -0.02,-0.12 -0.07,-0.2l-0.05 0 -0.16 -0.09c-1.97,0 -9.09,0 -13.71,0.05l-2.14 0.04 5.06 -9 3.47 1.95 -6.68 -11.33 -0.04 -0.04c0,0 -12.48,0.55 -12.48,0.55zm21.12 -2.02c0.05,-0.02 0.11,-0.05 0.16,-0.12 1.02,-1.68 4.64,-7.8 6.98,-11.8l1.07 -1.84 5.12 8.96 -3.46 1.96 13.16 0.09 5.98 -10.99 -2.54 1.34 -1.05 0.62 -1.41 -2.37c-0.84,-1.43 -1.89,-3.23 -2.52,-4.32 -0.73,-1.3 -1.79,-1.91 -3.31,-1.91l-14.78 0 -0.55 0.68 -0.89 -0.25c-0.76,-0.28 -1.54,-0.43 -2.36,-0.43l-0.32 0c-2.3,0.13 -4.34,1.39 -5.43,3.42 -1.41,2.68 -4.3,7.55 -5.39,9.39l-0.14 0.27c-0.05,0.09 -0.05,0.14 -0.04,0.21 0.02,0.07 0.05,0.12 0.11,0.16 2,1.18 4.64,2.77 6.89,4.16 2.25,1.37 4.11,2.53 4.48,2.76l0.04 -0.01 0.2 0.03z"/>
   <polygon fill="#00724C" fill-rule="nonzero" points="916.51,528.01 916.51,495.43 943.73,514.15 941.36,540.49 "/>
   <polygon fill="#00724C" fill-rule="nonzero" points="546.36,525.76 546.36,360 671.12,525.76 "/>
   <polygon fill="#00724C" fill-rule="nonzero" points="698.36,355.04 822.14,355.04 822.14,519.51 "/>
   <path fill="#00724C" fill-rule="nonzero" d="M436.99 484.5c-1.55,0 -2.82,-1.27 -2.82,-2.82 0,-1.55 1.27,-2.82 2.82,-2.82l14.98 0c1.55,0 2.82,1.27 2.82,2.82 0,1.55 -1.27,2.82 -2.82,2.82l-14.98 0z"/>
   <path fill="#009919" fill-rule="nonzero" d="M528.2 378.62l-0.13 -0.04 -13.09 0.29 0 -2.75c0,-2.82 -2.3,-5.12 -5.14,-5.12l-68.25 0c-1.01,0 -2.01,0.31 -2.87,0.88l-13.39 9.03 -5.51 0.12c-2.86,0.03 -5.66,0.8 -8.11,2.14 -4.26,2.3 -10.72,6.84 -17.22,15.25 -1.63,2.11 -3.68,5.27 -6.13,9.37l-0.41 0.68 0.45 0.66c0.34,0.48 0.52,1.07 0.52,1.64l0 7.98 2.25 -3.39c3.3,-4.95 6.59,-9.48 9.82,-13.5 4.67,-5.85 11.65,-9.22 19.15,-9.22l40.7 0c3.14,0 5.69,2.53 5.69,5.67l0 49.09c0,0.27 -0.01,0.55 -0.03,0.82 -0.17,2.01 -0.9,3.49 -0.9,3.49l-1.59 1.39 -0.36 0.34 -0.61 0.5 -15.96 12.92c-1.14,0.93 -2.59,1.45 -4.11,1.45l-67.89 0c-1.8,0 -3.29,-1.48 -3.29,-3.31l0 -7.39c0,-2.95 0.55,-5.82 1.62,-8.55 1.21,-3.05 2.45,-5.91 3.66,-8.53l0.13 -0.23 0 -7.59 1.77 -10.27c-6.86,13.09 -17.75,36.44 -21.19,43.42 -1.91,3.93 -2.93,8.3 -2.93,12.64l0 23.63 6.44 0c1.55,0 2.82,1.26 2.82,2.79l0 34.79c0,1.54 -1.27,2.8 -2.82,2.8l-6.93 0 0 6.55 1.38 -0.14 0.23 -0.05 47.1 0c2.01,0 3.75,1.43 4.12,3.43l0.2 1 23.12 0c2.23,0 4.3,-1.11 5.55,-2.95l15.41 -22.78c1.07,-1.59 2.84,-2.61 4.77,-2.73l9.35 -0.61 0 0.02 44.13 -2.82c0.12,0 0.24,-0.02 0.36,-0.02 1.96,0 3.77,0.88 4.96,2.39l11.69 14.78 5.3 -5.3c2.46,-2.46 3.84,-5.75 3.86,-9.25l0 -131.05c-0.04,-12.34 -6.91,-14.21 -7.71,-14.39zm-76.23 105.43l-14.98 0c-1.29,0 -2.36,-1.07 -2.36,-2.37 0,-1.28 1.07,-2.36 2.36,-2.36l14.98 0c1.3,0 2.37,1.07 2.37,2.36 0,1.3 -1.07,2.37 -2.37,2.37zm70.91 -54.75c0,1.27 -1.03,2.3 -2.32,2.3l-42.56 0c-1.27,0 -2.3,-1.04 -2.3,-2.3l0 -34.35c0,-1.29 1.04,-2.32 2.3,-2.32l42.56 0c1.29,0 2.32,1.03 2.32,2.32l0 34.35z"/>
   <path fill="#009919" fill-rule="nonzero" d="M466.57 448.23l0 75.49 -3.52 0.25 0 -70.01 0.61 -0.5 0.36 -0.34 1.59 -1.39c0,0 0.73,-1.48 0.9,-3.49l0.07 0z"/>
   <polygon fill="#009919" fill-rule="nonzero" points="959.57,454.05 941.86,402.06 853.01,369.95 852.54,373.46 861.29,378.1 936.47,407.06 952.61,454.26 934.72,499.27 916.51,484.73 916.51,495.98 943.25,514.39 940.97,539.77 916.51,527.51 916.51,536.67 945.8,551.36 949.43,511.01 940.02,503.51 "/>
   <path fill="#5F5D5D" fill-rule="nonzero" d="M380.09 407.44l5.95 0c1.84,0 3.34,1.48 3.34,3.34l0 42.13c0,1.84 -1.5,3.34 -3.34,3.34l-5.95 0c-1.84,0 -3.34,-1.5 -3.34,-3.34l0 -42.13c0,-1.86 1.5,-3.34 3.34,-3.34z"/>
   <path fill="#474443" fill-rule="nonzero" d="M351.37 504.96c0,-1.81 1.47,-3.27 3.25,-3.27l6.71 0c1.79,0 3.25,1.46 3.25,3.27l0 34.77c0,1.79 -1.46,3.25 -3.25,3.25l-6.71 0c-1.78,0 -3.25,-1.46 -3.25,-3.25l0 -34.77z"/>
   <path fill="#009919" fill-rule="nonzero" d="M827.85 344.02l-292.41 0 0 192.73 381.53 0 0 -103.61c0,0 -89.12,-89.12 -89.12,-89.12zm-145.4 181.27l-127.8 -169.81 128.11 0 0 169.81c0,0 -0.3,0 -0.3,0zm9.53 -163.2l122.82 163.2 -122.82 0 0 -163.2zm7.29 -6.6l122.41 0 0 162.65 -122.41 -162.65zm-152.46 5.87l123.38 163.94 -123.38 0c0,0 0,-163.94 0,-163.94zm358.79 163.94l-74.69 0 0 -163.34 74.69 74.6 0 88.74z"/>
   <g>
    <path fill="#FEFEFE" fill-rule="nonzero" d="M738.94 620.48c-22.24,0 -40.35,-18.09 -40.35,-40.33 0,-22.26 18.1,-40.35 40.35,-40.35 22.24,0 40.35,18.08 40.35,40.35 0,22.24 -18.1,40.33 -40.35,40.33zm0 -64.66c-13.41,0 -24.33,10.91 -24.33,24.33 0,13.38 10.92,24.3 24.33,24.3 13.41,0 24.31,-10.91 24.31,-24.3 0,-13.43 -10.91,-24.33 -24.31,-24.33z"/>
    <path fill="#FEFEFE" fill-rule="nonzero" d="M485.51 620.48c-22.24,0 -40.35,-18.09 -40.35,-40.33 0,-22.26 18.1,-40.35 40.35,-40.35 22.24,0 40.34,18.08 40.34,40.35 0,22.24 -18.1,40.33 -40.34,40.33zm0 -64.66c-13.41,0 -24.32,10.91 -24.32,24.33 0,13.38 10.91,24.3 24.32,24.3 13.4,0 24.31,-10.91 24.31,-24.3 0,-13.43 -10.91,-24.33 -24.31,-24.33z"/>
    <path fill="#FEFEFE" fill-rule="nonzero" d="M833.64 620.48c-22.25,0 -40.35,-18.09 -40.35,-40.33 0,-22.26 18.1,-40.35 40.35,-40.35 22.25,0 40.35,18.08 40.35,40.35 0,22.24 -18.1,40.33 -40.35,40.33zm0 -64.66c-13.43,0 -24.33,10.91 -24.33,24.33 0,13.38 10.91,24.3 24.33,24.3 13.41,0 24.31,-10.91 24.31,-24.3 0,-13.43 -10.91,-24.33 -24.31,-24.33z"/>
   </g>
   <path fill="#A5A6A5" fill-rule="nonzero" d="M738.94 604.92c-13.67,0 -24.78,-11.11 -24.78,-24.76 0,-13.67 11.11,-24.78 24.78,-24.78 13.65,0 24.76,11.11 24.76,24.78 0,13.66 -11.11,24.76 -24.76,24.76zm0 -14.5c-1.59,0 -2.87,1.3 -2.87,2.87 0,1.59 1.28,2.89 2.87,2.89 1.59,0 2.87,-1.31 2.87,-2.89 0,-1.57 -1.28,-2.87 -2.87,-2.87zm13.16 -13.16c-1.59,0 -2.87,1.3 -2.87,2.89 0,1.57 1.28,2.87 2.87,2.87 1.59,0 2.87,-1.3 2.87,-2.87 0,-1.59 -1.29,-2.89 -2.87,-2.89zm-26.31 0c-1.59,0 -2.87,1.3 -2.87,2.89 0,1.57 1.28,2.87 2.87,2.87 1.59,0 2.87,-1.3 2.87,-2.87 0,-1.59 -1.29,-2.89 -2.87,-2.89zm13.16 -13.14c-1.59,0 -2.87,1.28 -2.87,2.87 0,1.57 1.28,2.87 2.87,2.87 1.59,0 2.87,-1.3 2.87,-2.87 0,-1.59 -1.28,-2.87 -2.87,-2.87z"/>
   <path fill="#A5A6A5" fill-rule="nonzero" d="M485.51 604.92c-13.67,0 -24.78,-11.11 -24.78,-24.76 0,-13.67 11.11,-24.78 24.78,-24.78 13.65,0 24.76,11.11 24.76,24.78 0,13.66 -11.11,24.76 -24.76,24.76zm0 -14.5c-1.59,0 -2.88,1.3 -2.88,2.87 0,1.59 1.29,2.89 2.88,2.89 1.59,0 2.87,-1.31 2.87,-2.89 0,-1.57 -1.29,-2.87 -2.87,-2.87zm13.16 -13.16c-1.59,0 -2.87,1.3 -2.87,2.89 0,1.57 1.28,2.87 2.87,2.87 1.59,0 2.87,-1.3 2.87,-2.87 0,-1.59 -1.29,-2.89 -2.87,-2.89zm-26.31 0c-1.59,0 -2.88,1.3 -2.88,2.89 0,1.57 1.29,2.87 2.88,2.87 1.59,0 2.87,-1.3 2.87,-2.87 0,-1.59 -1.29,-2.89 -2.87,-2.89zm13.16 -13.14c-1.59,0 -2.88,1.28 -2.88,2.87 0,1.57 1.29,2.87 2.88,2.87 1.59,0 2.87,-1.3 2.87,-2.87 0,-1.59 -1.29,-2.87 -2.87,-2.87z"/>
   <path fill="#A5A6A5" fill-rule="nonzero" d="M833.64 604.92c-13.68,0 -24.8,-11.11 -24.8,-24.76 0,-13.67 11.12,-24.78 24.8,-24.78 13.66,0 24.76,11.11 24.76,24.78 0,13.66 -11.11,24.76 -24.76,24.76zm0 -14.5c-1.59,0 -2.87,1.3 -2.87,2.87 0,1.59 1.29,2.89 2.87,2.89 1.59,0 2.87,-1.31 2.87,-2.89 0,-1.57 -1.28,-2.87 -2.87,-2.87zm13.15 -13.16c-1.59,0 -2.87,1.3 -2.87,2.89 0,1.57 1.28,2.87 2.87,2.87 1.59,0 2.87,-1.3 2.87,-2.87 0,-1.59 -1.28,-2.89 -2.87,-2.89zm-26.31 0c-1.59,0 -2.87,1.3 -2.87,2.89 0,1.57 1.29,2.87 2.87,2.87 1.59,0 2.88,-1.3 2.88,-2.87 0,-1.59 -1.29,-2.89 -2.88,-2.89zm13.16 -13.14c-1.59,0 -2.87,1.28 -2.87,2.87 0,1.57 1.29,2.87 2.87,2.87 1.59,0 2.87,-1.3 2.87,-2.87 0,-1.59 -1.28,-2.87 -2.87,-2.87z"/>
   <path fill="#5F5D5D" fill-rule="nonzero" d="M485.51 570.31c-1.84,0 -3.34,-1.5 -3.34,-3.32 0,-1.84 1.5,-3.34 3.34,-3.34 1.84,0 3.33,1.5 3.33,3.34 0,1.82 -1.5,3.32 -3.33,3.32z"/>
   <path fill="#5F5D5D" fill-rule="nonzero" d="M498.67 583.47c-1.84,0 -3.34,-1.5 -3.34,-3.33 0,-1.84 1.5,-3.32 3.34,-3.32 1.82,0 3.32,1.49 3.32,3.32 0,1.84 -1.5,3.33 -3.32,3.33z"/>
   <path fill="#5F5D5D" fill-rule="nonzero" d="M472.35 583.47c-1.84,0 -3.34,-1.5 -3.34,-3.33 0,-1.84 1.51,-3.32 3.34,-3.32 1.84,0 3.33,1.49 3.33,3.32 0,1.84 -1.5,3.33 -3.33,3.33z"/>
   <path fill="#5F5D5D" fill-rule="nonzero" d="M485.51 596.63c-1.84,0 -3.34,-1.5 -3.34,-3.34 0,-1.84 1.5,-3.34 3.34,-3.34 1.84,0 3.33,1.5 3.33,3.34 0,1.84 -1.5,3.34 -3.33,3.34z"/>
   <path fill="#5F5D5D" fill-rule="nonzero" d="M725.78 583.47c-1.84,0 -3.34,-1.5 -3.34,-3.33 0,-1.84 1.5,-3.32 3.34,-3.32 1.84,0 3.34,1.49 3.34,3.32 0,1.84 -1.5,3.33 -3.34,3.33z"/>
   <path fill="#5F5D5D" fill-rule="nonzero" d="M752.07 583.47c-1.84,0 -3.32,-1.5 -3.32,-3.33 0,-1.84 1.48,-3.32 3.32,-3.32 1.84,0 3.34,1.49 3.34,3.32 0,1.84 -1.5,3.33 -3.34,3.33z"/>
   <path fill="#5F5D5D" fill-rule="nonzero" d="M738.94 570.31c-1.84,0 -3.34,-1.5 -3.34,-3.32 0,-1.84 1.5,-3.34 3.34,-3.34 1.84,0 3.32,1.5 3.32,3.34 0,1.82 -1.48,3.32 -3.32,3.32z"/>
   <path fill="#5F5D5D" fill-rule="nonzero" d="M738.94 596.63c-1.84,0 -3.34,-1.5 -3.34,-3.34 0,-1.84 1.5,-3.34 3.34,-3.34 1.84,0 3.32,1.5 3.32,3.34 0,1.84 -1.48,3.34 -3.32,3.34z"/>
   <path fill="#5F5D5D" fill-rule="nonzero" d="M833.62 596.63c-1.82,0 -3.32,-1.5 -3.32,-3.34 0,-1.84 1.5,-3.34 3.32,-3.34 1.84,0 3.34,1.5 3.34,3.34 0,1.84 -1.5,3.34 -3.34,3.34z"/>
   <path fill="#5F5D5D" fill-rule="nonzero" d="M820.48 583.47c-1.84,0 -3.34,-1.5 -3.34,-3.33 0,-1.84 1.5,-3.32 3.34,-3.32 1.84,0 3.32,1.49 3.32,3.32 0,1.84 -1.48,3.33 -3.32,3.33z"/>
   <path fill="#5F5D5D" fill-rule="nonzero" d="M833.62 570.31c-1.82,0 -3.32,-1.5 -3.32,-3.32 0,-1.84 1.5,-3.34 3.32,-3.34 1.84,0 3.34,1.5 3.34,3.34 0,1.82 -1.5,3.32 -3.34,3.32z"/>
   <path fill="#5F5D5D" fill-rule="nonzero" d="M846.78 583.47c-1.84,0 -3.32,-1.5 -3.32,-3.33 0,-1.84 1.48,-3.32 3.32,-3.32 1.84,0 3.34,1.49 3.34,3.32 0,1.84 -1.5,3.33 -3.34,3.33z"/>
   <path fill="#A5A6A5" fill-rule="nonzero" d="M406.99 577.48l0.23 -1.43c0.03,-0.21 0.05,-0.44 0.05,-0.67l0 -22.5 23.24 0c2.07,0 4,-1.03 5.17,-2.75l15.41 -22.78c1.14,-1.71 3.05,-2.8 5.11,-2.94l53.5 -3.39c0.14,-0.01 0.29,-0.01 0.41,-0.01 2.07,0 4,0.93 5.29,2.55l20.64 26.1c0.68,0.86 1.07,1.89 1.14,2.98l1.13 18.76c0.04,0.73 -0.21,1.45 -0.73,2 -0.52,0.54 -1.19,0.84 -1.94,0.84l-3.73 0c-0.75,0 -1.43,-0.3 -1.95,-0.84 -0.52,-0.51 -0.77,-1.21 -0.75,-1.93 0.21,-5.15 -0.5,-18.56 -11.62,-31.61 -4.85,-5.7 -11.94,-9.19 -19.42,-9.59 -4.66,-0.25 -9.14,-0.37 -13.32,-0.37 -3.55,0 -6.89,0.09 -9.87,0.27 -10.37,0.64 -19.51,6.36 -24.47,15.28 -1.05,1.91 -1.97,3.82 -2.68,5.69 -2.86,7.43 -7.02,17.17 -9.23,22.31 -1.05,2.45 -3.47,4.04 -6.14,4.04 0,0 -25.46,0 -25.46,0z"/>
   <path fill="#A5A6A5" fill-rule="nonzero" d="M353.53 561.14l9.78 0c1.19,0 2.16,0.96 2.16,2.16l0 6.77c0,1.2 -0.97,2.17 -2.16,2.17l-9.78 0c-1.2,0 -2.16,-0.98 -2.16,-2.17l0 -6.77c0,-1.19 0.96,-2.16 2.16,-2.16z"/>
   <path fill="#A5A5A5" fill-rule="nonzero" d="M356.11 581.46c-1.28,0 -2.46,-0.47 -3.33,-1.32 -0.91,-0.89 -1.41,-2.07 -1.41,-3.34l0 -5.67 1.63 0.55c0.19,0.07 0.37,0.11 0.53,0.11l9.78 0c0.95,0 1.71,-0.77 1.71,-1.71l0 -6.77c0,-0.95 -0.76,-1.71 -1.71,-1.71l-9.78 0c-0.16,0 -0.34,0.04 -0.53,0.11l-1.63 0.55 0 -9.16c0,-2.55 2.09,-4.66 4.66,-4.66l47.06 0c2.56,0 4.66,2.11 4.66,4.66l0 22.28c0,2.53 -1.98,4.59 -4.52,4.65l-47.08 1.43c0,0 -0.04,0 -0.04,0z"/>
   <path fill="#FEFEFE" fill-rule="nonzero" d="M693.93 605.09c9.03,11.66 28.4,25.02 58.5,62.44 -6.48,4.84 -13.61,9.18 -21.26,12.96 -25.73,-45.4 -40.99,-61.98 -47.61,-75.4l10.37 0zm15.93 0l-12.01 0c9.91,10.85 30.47,22.91 61.28,57.04 6.05,-5.23 11.41,-10.91 15.94,-16.98 -30.13,-23.92 -52.86,-31.94 -65.21,-40.06zm-39.65 0c3.47,14.96 11.96,34.56 27.28,87.47 8.85,-2.12 17.32,-4.89 25.28,-8.25 -23.42,-47.75 -37.01,-65.3 -42.78,-79.23l-9.78 0zm44.63 0c13.19,6.91 36.05,13.42 64.79,33.37 3.96,-6.37 7.05,-13.09 9.16,-20.09 -19.78,-7.98 -38.31,-10.64 -52.36,-13.28l-21.58 0zm-57.66 0c0.41,15.53 1.42,36.37 3.29,92.28 9.43,-0.25 18.62,-1.19 27.48,-2.8 -11.96,-54.17 -18.53,-74.27 -21.19,-89.47l-9.57 0zm134.38 0l-33.05 0c10.05,1.09 21.05,2.7 32.15,5.84 0.38,-1.93 0.66,-3.87 0.9,-5.84zm-174.54 0c-9.03,11.66 -28.4,25.02 -58.49,62.44 6.46,4.84 13.59,9.18 21.25,12.96 25.72,-45.4 40.99,-61.98 47.61,-75.4l-10.37 0zm-15.91 0c-12.37,8.12 -35.1,16.14 -65.23,40.06 4.54,6.08 9.89,11.75 15.95,16.98 30.81,-34.13 51.4,-46.18 61.28,-57.04l-12 0zm29.87 0c-5.79,13.93 -19.36,31.47 -42.77,79.23 7.96,3.35 16.4,6.12 25.26,8.25 15.33,-52.91 23.81,-72.52 27.28,-87.47l-9.77 0zm-56.45 0c-14.03,2.64 -32.56,5.3 -52.36,13.28 2.13,7 5.2,13.71 9.16,20.09 28.74,-19.94 51.59,-26.46 64.79,-33.37l-21.58 0zm69.68 0c-2.66,15.21 -9.21,35.31 -21.19,89.47 8.85,1.61 18.05,2.55 27.49,2.8 1.86,-55.91 2.85,-76.75 3.27,-92.28l-9.57 0zm-91.76 0l-33.04 0c0.23,1.97 0.52,3.9 0.91,5.84 11.11,-3.14 22.08,-4.75 32.13,-5.84z"/>
  </g>
  <path fill="#FEFEFE" fill-rule="nonzero" d="M290.46 1150.52l0 8.59 -77.68 0 0 -8.59 77.68 0zm-2.74 -19.47l0 8.59 -73.11 0 0 -8.59 73.11 0zm-2.19 37.74l0 8.41 -32.08 24.13 -8.22 -4.57 25.87 -19.37 -53.28 0 0 -8.59 3.2 0 22.3 -45.42 10.97 0 -22.3 45.42 53.55 0zm-31.8 37.65l-30.25 -22.75 14.99 0 30.34 22.75 -15.08 0z"/>
  <path id="_1" fill="#FEFEFE" fill-rule="nonzero" d="M343.58 1123.38l10.14 0 0 75.49 -10.14 0 0 -75.49zm23.49 0l10.14 0 0 75.49 -10.14 0 0 -75.49zm-43.69 8.78l10.05 0 4.84 46.97 -10.05 0 -4.84 -46.97zm59.22 46.97l4.94 -46.97 9.96 0 -4.84 46.97 -10.05 0zm-62.23 16.18l80.05 0 0 8.41 -80.05 0 0 -8.41z"/>
  <path id="_2" fill="#FEFEFE" fill-rule="nonzero" d="M482.36 1129.23c0,-0.37 0.11,-0.69 0.32,-0.96 0.21,-0.28 0.44,-0.41 0.69,-0.41l7.86 0c0.24,0 0.47,0.14 0.69,0.41 0.21,0.27 0.32,0.59 0.32,0.96l0 71.56c0,0.36 -0.11,0.68 -0.32,0.96 -0.21,0.27 -0.44,0.41 -0.69,0.41l-7.86 0c-0.24,0 -0.47,-0.14 -0.69,-0.41 -0.21,-0.28 -0.32,-0.6 -0.32,-0.96l0 -71.56z"/>
  <path id="_3" fill="#FEFEFE" fill-rule="nonzero" d="M637.56 1182.97l0 7.49 -76.77 0 0 -7.49 8.14 0 0 -43.14 25.49 0 0 -4.75 -31.8 0 0 -7.68 31.8 0 0 -4.02 9.87 0 0 4.02 31.44 0 0 7.68 -31.44 0 0 4.75 25.13 0 0 43.14 8.14 0zm-18 0l0 -35.64 -40.76 0 0 4.57 41.03 0 0 5.85 -41.03 0 0 4.48 41.03 0 0 5.85 -41.03 0 0 4.57 41.03 0 0 5.85 -41.03 0 0 4.48 40.76 0zm-40.58 10.24l13.52 0 -15.26 10.51 -13.52 0 15.26 -10.51zm40.39 0l15.26 10.51 -13.52 0 -15.26 -10.51 13.52 0z"/>
  <path id="_4" fill="#FEFEFE" fill-rule="nonzero" d="M675.15 1140.65l-3.93 -17.27 9.32 0 4.02 17.27 -9.41 0zm15.53 54.65l-2.83 8.41 -12.7 0 0 -47.98 -6.31 0 0 -8.5 15.63 0 0 48.07 6.21 0zm11.33 -45.51l19.37 0 0 52.09 -13.89 0 -2.29 -8.5 6.76 0 0 -35 -9.96 0 0 45.33 -9.41 0 0 -75.76 45.33 0 0 -4.57 9.41 0 0 12.98 -45.33 0 0 13.44zm45.33 -1.01l0 15.35 -22.57 35.09 0 -15.26 22.57 -35.19zm-4.02 46.34l6.21 0 -2.56 8.59 -11.15 0 -16.27 -80.33 9.69 0 14.08 71.74z"/>
  <path id="_5" fill="#FEFEFE" fill-rule="nonzero" d="M830.38 1129.23c0,-0.37 0.11,-0.69 0.32,-0.96 0.21,-0.28 0.44,-0.41 0.69,-0.41l7.86 0c0.24,0 0.47,0.14 0.69,0.41 0.21,0.27 0.32,0.59 0.32,0.96l0 71.56c0,0.36 -0.11,0.68 -0.32,0.96 -0.21,0.27 -0.44,0.41 -0.69,0.41l-7.86 0c-0.24,0 -0.47,-0.14 -0.69,-0.41 -0.21,-0.28 -0.32,-0.6 -0.32,-0.96l0 -71.56z"/>
  <path id="_6" fill="#FEFEFE" fill-rule="nonzero" d="M985.58 1137.91l0 6.76 -76.68 0 0 -6.76 33.36 0 0 -4.57 -31.16 0 9.32 -9.96 10.42 0 -2.65 3.2 14.08 0 0 -3.2 9.87 0 0 3.2 31.62 0 0 6.76 -31.62 0 0 4.57 33.45 0zm-23.12 55.38l21.29 0 0 6.76 -21.29 0 0 3.65 -9.87 0 0 -37.56 -10.69 0 0 37.56 -9.87 0 0 -3.65 -21.39 0 0 -6.76 21.39 0 0 -4.66 -19.56 0 0 -6.76 19.56 0 0 -4.94 -20.47 0 0 -6.76 20.47 0 0 -4.3 -18.83 0 0 -16.91 68.18 0 0 16.91 -10.05 0 0 -10.69 -48.25 0 0 4.48 49.35 0 0 6.21 -9.96 0 0 4.3 20.38 0 0 6.76 -20.38 0 0 4.94 19.65 0 0 6.76 -19.65 0 0 4.66z"/>
  <path id="_7" fill="#FEFEFE" fill-rule="nonzero" d="M1025.09 1140.65l-3.84 -17.27 8.86 0 3.84 17.27 -8.86 0zm17.27 54.65l-3.11 8.41 -14.62 0 0 -47.98 -6.4 0 0 -8.5 15.72 0 0 48.07 8.41 0zm1.28 -28.61l49.17 0 0 37.2 -8.41 0 0 -29.61 -32.35 0 0 7.31 38.75 0 0 6.67 -38.75 0 0 7.86 38.75 0 0 7.77 -47.16 0 0 -37.2zm54.47 -4.02l-59.77 0 0 -7.4 17.09 0 0 -17.55 -15.35 0 0 -7.4 56.29 0 0 7.4 -15.08 0 0 17.55 16.82 0 0 7.4zm-34.09 -7.4l8.68 0 0 -17.55 -8.68 0 0 17.55zm-12.52 -3.56l-8.13 0 -2.56 -10.33 8.22 0 2.47 10.33zm33.45 0l2.38 -10.33 8.22 0 -2.47 10.33 -8.13 0zm-22.85 -19.47l-8.22 0 -3.01 -8.59 8.32 0 2.92 8.59zm12.89 0l2.92 -8.59 8.32 0 -2.83 8.59 -8.41 0z"/>
  <path fill="#009919" fill-rule="nonzero" d="M8.23 968.89l19.4 -45.77 21.73 0 -19.61 45.77 -21.51 0zm9.07 -13.71l23.62 0 0 102.51 -23.62 0 0 -102.51zm-16.87 -8.65l28.05 0 0 22.36 -22.78 0 -5.28 -22.36zm7.38 -28.68l19.61 -45.56 21.94 0 -19.82 45.56 -21.73 0zm-7.81 -22.57l28.26 0 0 22.57 -22.78 0 -5.49 -22.57zm180.97 162.41l-24.47 0 0 -91.12 -44.71 0 0 11.18 45.56 0 0 17.72 -45.56 0 0 11.39 45.56 0 0 17.3 -45.56 0 0 11.18 45.56 0 0 22.36 -70.23 0 0 -113.69 93.86 0 0 113.69zm-103.35 0l-25.31 0 0 -179.28 138.58 0 -7.6 22.57 -105.67 0 0 156.71zm41.55 -124.02l-41.97 0 0 -20.88 41.97 0 0 -16.87 26.15 0 0 16.87 37.33 0 0 20.88 -37.33 0 0 10.34 -26.15 0 0 -10.34z"/>
  <path id="_1_28" fill="#009919" fill-rule="nonzero" d="M267.87 898.44l-39.86 0 54 -19.62 40.07 0 -54.21 19.62zm102.72 0l-51.89 -19.62 39.44 0 51.89 19.62 -39.44 0zm-135.83 55.68l18.77 0 -4.01 -11.39 26.37 0 4.01 11.39 26.15 0 0 -15.61 -63.07 0 0 -14.34 63.07 0 0 -7.17 -67.29 0 0 -14.34 160.93 0 0 14.34 -67.5 0 0 7.17 63.28 0 0 14.34 -63.28 0 0 32.48 -97.44 0 0 -16.87zm168.95 16.87l-72.35 0 0 -16.87 27.21 0 3.8 -11.39 26.37 0 -3.59 11.39 18.56 0 0 16.87zm-147.43 5.06l20.88 0 -18.77 14.55 -21.51 0 19.41 -14.55zm41.34 0l17.3 14.55 -21.09 0 -17.3 -14.55 21.09 0zm-12.02 54.84l0 26.79 -50.83 0 0 -14.13 7.17 0 -0.63 -7.8 18.56 0 0.84 7.8 6.12 0 0 -12.65 -24.26 0 0 -14.34 24.26 0 0 -7.38 -28.05 0 0 -14.34 74.67 0 0 14.34 -27.84 0 0 7.38 24.05 0 0 14.34 -24.05 0zm24.89 12.65l6.75 0 0 14.13 -32.69 0 0 -14.13 6.96 0 0.84 -7.8 18.77 0 -0.63 7.8zm33.96 -67.49l19.62 0 -19.41 14.55 -21.3 0 21.09 -14.55zm33.96 0l17.3 14.55 -21.09 0 -17.3 -14.55 21.09 0zm-6.33 54.84l0 26.79 -51.04 0 0 -14.13 7.59 0 -0.84 -7.8 18.56 0 0.63 7.8 6.12 0 0 -12.65 -23.83 0 0 -14.34 23.83 0 0 -7.38 -27.84 0 0 -14.34 74.46 0 0 14.34 -27.63 0 0 7.38 23.83 0 0 14.34 -23.83 0zm24.68 12.65l6.96 0 0 14.13 -32.69 0 0 -14.13 6.96 0 0.84 -7.8 18.56 0 -0.63 7.8z"/>
  <path id="_2_29" fill="#009919" fill-rule="nonzero" d="M637.82 1019.09l-16.24 0 0 38.6 -47.46 0 -6.54 -22.57 27.42 0 0 -16.03 -103.56 0 0 38.6 -26.58 0 0 -38.6 -16.24 0 0 -22.57 16.24 0 0 -79.94 65.18 0 0 -15.61 -76.35 0 0 -22.57 179.28 0 0 22.57 -76.35 0 0 15.61 64.96 0 0 79.94 16.24 0 0 22.57zm-146.38 -62.65l38.6 0 0 -17.51 -38.6 0 0 17.51zm65.18 -17.51l0 17.51 38.39 0 0 -17.51 -38.39 0zm-65.18 57.58l38.6 0 0 -17.51 -38.6 0 0 17.51zm103.56 0l0 -17.51 -38.39 0 0 17.51 38.39 0z"/>
  <path id="_3_30" fill="#009919" fill-rule="nonzero" d="M842.41 969.31l0 22.57 -72.35 0 0 -22.57 72.35 0zm16.87 65.59l0 22.36 -181.39 0 0 -22.36 80.36 0 0 -43.03 -65.6 0 0 -22.57 65.6 0 0 -40.92 -80.78 0 12.65 -49.78 27 0 -6.33 27.21 47.46 0 0 -33.54 26.37 0 0 33.54 65.38 0 0 22.57 -65.38 0 0 106.51 74.67 0z"/>
  <path id="_4_31" fill="#009919" fill-rule="nonzero" d="M954.2 912.57l-48.51 -18.98 0 -22.78 48.51 18.98 0 22.78zm18.56 -40.28l27.42 0 -2.11 6.75 74.88 0 0 54 -26.15 0 0 -31.64 -83.31 0 9.28 -29.11zm-18.56 73.61l-48.51 18.98 0 -23.2 48.51 -18.56 0 22.78zm6.33 15.61l37.12 -35.22 0 -19.41 26.79 0 0 19.41 14.56 12.87 37.96 0 -7.38 22.35 -41.13 0 -17.72 -16.24 -17.51 16.24 -32.69 0zm-19.83 63.7l-26.15 0 0 -58 152.5 0 0 58 -26.15 0 0 -36.07 -100.19 0 0 36.07zm-5.27 12.23l41.97 -21.09 0 -20.03 26.79 0 0 20.03 41.34 21.09 29.53 0 -7.38 20.25 -34.8 0 -41.97 -21.73 -44.93 21.73 -32.69 0 -7.38 -20.25 29.53 0z"/>
  <path id="_5_32" fill="#009919" fill-rule="nonzero" d="M1151.2 932.82l18.77 46.61 -25.1 0 -18.56 -46.61 24.89 0zm-3.59 -54.42l18.56 46.61 -24.89 0 -18.56 -46.61 24.89 0zm-12.23 157.56l10.12 -43.45 24.47 0 -15.18 65.17 -28.47 0 -5.91 -21.73 14.98 0zm172.32 -134.99l-109.89 0 0 156.71 -24.89 0 0 -179.28 134.78 0 0 22.57zm-1.9 17.3l0 89.22 -39.23 0 0 50.2 -27.84 0 -6.12 -22.36 10.97 0 0 -27.84 -35.43 0 0 -89.22 28.05 0 2.53 -10.76 23.2 0 -2.32 10.76 46.19 0zm-23.2 22.57l-51.25 0 0 12.65 60.53 0 0 18.98 -60.53 0 0 12.65 51.25 0 0 -44.29zm-49.36 75.08l-6.33 39.44 -22.57 0 6.33 -39.44 22.57 0zm62.43 0l6.96 39.44 -22.78 0 -6.96 -39.44 22.78 0zm-12.86 39.44l0 -22.57 28.05 0 -6.12 22.57 -21.93 0z"/>
 </g>
</svg>
